0
SECTION
2
HEADER
9
$INSUNITS
70
4
9
$ACADVER
1
AC1014
9
$HANDSEED
5
FFFF
0
ENDSEC
0
SECTION
2
TABLES
0
TABLE
2
VPORT
5
8
100
AcDbSymbolTable
0
ENDTAB
0
TABLE
2
LTYPE
5
5
100
AcDbSymbolTable
0
LTYPE
5
14
100
AcDbSymbolTableRecord
100
AcDbLinetypeTableRecord
2
BYBLOCK
70
0
0
LTYPE
5
15
100
AcDbSymbolTableRecord
100
AcDbLinetypeTableRecord
2
BYLAYER
70
0
0
LTYPE
5
16
100
AcDbSymbolTableRecord
100
AcDbLinetypeTableRecord
2
DASHED
70
0
3
Dashed __ __ __ __ __ __ __ __ __ __ __ __ __ _
72
65
73
2
40
0.75
49
0.5
74
0
49
-0.25
74
0
0
ENDTAB
0
TABLE
2
LAYER
5
2
100
AcDbSymbolTable
70
3
0
LAYER
5
50
100
AcDbSymbolTableRecord
100
AcDbLayerTableRecord
2
1
70
0
62
7
6
DASHED
0
LAYER
5
51
100
AcDbSymbolTableRecord
100
AcDbLayerTableRecord
2
0
70
0
62
7
6
CONTINUOUS
0
ENDTAB
0
TABLE
2
STYLE
5
3
100
AcDbSymbolTable
70
1
0
STYLE
5
11
100
AcDbSymbolTableRecord
100
AcDbTextStyleTableRecord
2
STANDARD
70
0
0
ENDTAB
0
TABLE
2
VIEW
5
6
100
AcDbSymbolTable
70
0
0
ENDTAB
0
TABLE
2
UCS
5
7
100
AcDbSymbolTable
70
0
0
ENDTAB
0
TABLE
2
APPID
5
9
100
AcDbSymbolTable
70
2
0
APPID
5
12
100
AcDbSymbolTableRecord
100
AcDbRegAppTableRecord
2
ACAD
70
0
0
ENDTAB
0
TABLE
2
DIMSTYLE
5
A
100
AcDbSymbolTable
70
1
0
ENDTAB
0
TABLE
2
BLOCK_RECORD
5
1
100
AcDbSymbolTable
70
1
0
BLOCK_RECORD
5
1F
100
AcDbSymbolTableRecord
100
AcDbBlockTableRecord
2
*MODEL_SPACE
0
BLOCK_RECORD
5
1B
100
AcDbSymbolTableRecord
100
AcDbBlockTableRecord
2
*PAPER_SPACE
0
ENDTAB
0
ENDSEC
0
SECTION
2
BLOCKS
0
BLOCK
5
20
100
AcDbEntity
100
AcDbBlockBegin
2
*MODEL_SPACE
0
ENDBLK
5
21
100
AcDbEntity
100
AcDbBlockEnd
0
BLOCK
5
1C
100
AcDbEntity
100
AcDbBlockBegin
2
*PAPER_SPACE
0
ENDBLK
5
1D
100
AcDbEntity
100
AcDbBlockEnd
0
ENDSEC
0
SECTION
2
ENTITIES
0
LWPOLYLINE
5
100
100
AcDbEntity
8
0
100
AcDbPolyline
90
4
70
1
43
0.0
10
-241.59999999999997
20
-34.725000000000001
10
-235.59999999999997
20
-34.725000000000001
42
-0.99999999999999989
10
-235.59999999999997
20
-41.475000000000009
10
-241.59999999999997
20
-41.475000000000009
42
-0.99999999999999989
0
LWPOLYLINE
5
101
100
AcDbEntity
8
0
100
AcDbPolyline
90
4
70
1
43
0.0
10
-235.59999999999997
20
-9.7250000000000032
10
-241.59999999999997
20
-9.7250000000000032
42
-0.99999999999999989
10
-241.59999999999997
20
-2.9750000000000023
10
-235.59999999999997
20
-2.9750000000000023
42
-0.99999999999999989
0
SPLINE
5
102
100
AcDbEntity
8
0
100
AcDbSpline
70
0
71
3
72
16
73
12
74
0
42
0.000000001
43
0.0000000001
44
0.0000000001
40
-9.6206008419950546
40
-9.6206008419950546
40
-9.6206008419950546
40
-9.6206008419950546
40
-9.3745516947026655
40
-9.3745516947026655
40
-9.0373132507706018
40
-9.0373132507706018
40
-8.5795789848033923
40
-8.5795789848033923
40
-7.849502833575241
40
-7.849502833575241
40
-7.3017041651332955
40
-7.3017041651332955
40
-7.3017041651332955
40
-7.3017041651332955
10
-407.56872510277731
20
-29.651011175610119
30
-7.8048678631148505e-13
10
-407.6178946086813
20
-30.356516041097631
30
-7.8048678631148505e-13
10
-407.64097124656166
20
-31.070600226967187
30
1.2106982083537332e-12
10
-407.840222625085
20
-32.718095263829177
30
1.2106982083537332e-12
10
-408.15227673460078
20
-33.641336131660296
30
-1.3217205108162489e-12
10
-409.27284636749698
20
-35.607195670179188
30
-1.3217205108162489e-12
10
-410.07489894547524
20
-36.332514340554056
30
-1.0935696792557792e-12
10
-411.52395245262892
20
-37.450514019769997
30
-1.0935696792557792e-12
10
-412.54300398816213
20
-37.945301658356243
30
-1.588729148238599e-12
10
-414.44876816099423
20
-38.455031854519376
30
-1.588729148238599e-12
10
-414.96551271719483
20
-38.540179269286362
30
-7.8048678631148505e-13
10
-415.94198224045505
20
-38.540179269286718
30
-7.8048678631148505e-13
0
LINE
5
103
100
AcDbEntity
8
0
100
AcDbLine
10
-415.9419822404551
20
-38.540179269286718
30
-7.8048678631148505e-13
11
-442.38415320754109
21
-38.540179269286426
31
-7.8048678631148505e-13
0
SPLINE
5
104
100
AcDbEntity
8
0
100
AcDbSpline
70
0
71
3
72
16
73
12
74
0
42
0.000000001
43
0.0000000001
44
0.0000000001
40
-6.8828178275145779
40
-6.8828178275145779
40
-6.8828178275145779
40
-6.8828178275145779
40
-6.8393602150065327
40
-6.8393602150065327
40
-6.5071977284409384
40
-6.5071977284409384
40
-6.1710773105050549
40
-6.1710773105050549
40
-5.7164641772262978
40
-5.7164641772262978
40
-4.8329163605468812
40
-4.8329163605468812
40
-4.8329163605468812
40
-4.8329163605468812
10
-442.38415320754109
20
-38.540179269286426
30
-7.8048678631148505e-13
10
-442.52919095385244
20
-38.540179269285922
30
-7.8048678631148505e-13
10
-442.67420431857306
20
-38.536623133712169
30
-1.9279022822615843e-12
10
-443.92655825127378
20
-38.475366102030179
30
-1.9279022822615843e-12
10
-445.0270586886449
20
-38.214821372977838
30
-4.9682480351975755e-13
10
-447.05806803762232
20
-37.295045862443629
30
-4.9682480351975755e-13
10
-447.90003875754275
20
-36.670044426200405
30
-7.8048678631148505e-13
10
-449.44491726569504
20
-35.075732331159386
30
-7.8048678631148505e-13
10
-449.88805865669087
20
-34.179561777749171
30
-3.1994962235160074e-11
10
-450.58148121382425
20
-32.474710562664285
30
-3.1994962235160074e-11
10
-450.59153674443445
20
-32.031039831932233
30
-7.7993167479917247e-13
10
-450.75692922317074
20
-29.657902822024091
30
-7.7993167479917247e-13
0
SPLINE
5
105
100
AcDbEntity
8
0
100
AcDbSpline
70
0
71
3
72
10
73
6
74
0
42
0.000000001
43
0.0000000001
44
0.0000000001
40
-1.4879275720008849
40
-1.4879275720008849
40
-1.4879275720008849
40
-1.4879275720008849
40
-0.74396378599923241
40
-0.74396378599923241
40
-0
40
-0
40
-0
40
-0
10
-450.75692922317137
20
-29.657902822015384
30
-7.8048678631148505e-13
10
-450.9293427400724
20
-27.184024317439182
30
-7.8048678631148505e-13
10
-451.01562914717709
20
-24.704848746198138
30
-7.6771922152829575e-13
10
-451.01562800369771
20
-19.745090176928709
30
-7.6771922152829575e-13
10
-450.92934045344111
20
-17.265914645509337
30
-7.8048678631148505e-13
10
-450.75692579582562
20
-14.792036220391191
30
-7.8048678631148505e-13
0
SPLINE
5
106
100
AcDbEntity
8
0
100
AcDbSpline
70
0
71
3
72
16
73
12
74
0
42
0.000000001
43
0.0000000001
44
0.0000000001
40
-9.6175220416617222
40
-9.6175220416617222
40
-9.6175220416617222
40
-9.6175220416617222
40
-9.3725696042980911
40
-9.3725696042980911
40
-9.0356634857345774
40
-9.0356634857345774
40
-8.5784008767575237
40
-8.5784008767575237
40
-7.8491381918631706
40
-7.8491381918631706
40
-7.3015593066151787
40
-7.3015593066151787
40
-7.3015593066151787
40
-7.3015593066151787
10
-450.7569257958254
20
-14.792036220391216
30
-7.8048678631148505e-13
10
-450.70792382822736
20
-14.08893526537341
30
-7.8048678631148505e-13
10
-450.68488071752665
20
-13.377418367085731
30
-2.3531177006930193e-12
10
-450.48602439136266
20
-11.732328635812211
30
-2.3531177006930193e-12
10
-450.17402573460288
20
-10.809071209320095
30
-7.2719608112947753e-14
10
-449.05360304310307
20
-8.8431998166370818
30
-7.2719608112947753e-14
10
-448.25163245010071
20
-8.1178435393374073
30
-5.6898930012039273e-13
10
-446.80261889586666
20
-6.9997385647160186
30
-5.6898930012039273e-13
10
-445.78361263229851
20
-6.5048956911126137
30
2.9976021664879227e-13
10
-443.87730710590017
20
-5.9949003804662793
30
2.9920510513647969e-13
10
-443.36069729735613
20
-5.9098206459611315
30
-7.8048678631148505e-13
10
-442.38415320751523
20
-5.9098206459607461
30
-7.8048678631148505e-13
0
LINE
5
107
100
AcDbEntity
8
0
100
AcDbLine
10
-442.38415320751528
20
-5.9098206459607461
30
-7.8048678631148505e-13
11
-415.94198224043276
21
-5.9098206459685958
31
-7.8048678631148505e-13
0
SPLINE
5
108
100
AcDbEntity
8
0
100
AcDbSpline
70
0
71
3
72
16
73
12
74
0
42
0.000000001
43
0.0000000001
44
0.0000000001
40
-6.88315038909034
40
-6.88315038909034
40
-6.88315038909034
40
-6.88315038909034
40
-6.8395526082103837
40
-6.8395526082103837
40
-6.5070915619575658
40
-6.5070915619575658
40
-6.1707356307529242
40
-6.1707356307529242
40
-5.7158973153878527
40
-5.7158973153878527
40
-4.8313731319553348
40
-4.8313731319553348
40
-4.8313731319553348
40
-4.8313731319553348
10
-415.94198224043276
20
-5.9098206459685958
30
-7.8048678631148505e-13
10
-415.7966123689834
20
-5.9098206459672573
30
-7.8048678631148505e-13
10
-415.65126738047041
20
-5.913393071541126
30
-3.9412917374193057e-13
10
-414.39862674826003
20
-5.9748041370947966
30
-3.9412917374193057e-13
10
-413.2981929812255
20
-6.2354528513802769
30
3.7386760354252146e-12
10
-411.26755141712351
20
-7.15531522867464
30
3.7386760354252146e-12
10
-410.42562568802089
20
-7.7803081882280081
30
3.5688119126575657e-12
10
-408.88077027335072
20
-9.3749103101831519
30
3.5688119126575657e-12
10
-408.43773484998388
20
-10.271113568173041
30
2.0877743978076069e-12
10
-407.74422961780323
20
-11.97665499601813
30
2.0877743978076069e-12
10
-407.73453574139648
20
-12.41986349673561
30
-7.8048678631148505e-13
10
-407.56872167864083
20
-14.799049612637587
30
-7.8048678631148505e-13
0
SPLINE
5
109
100
AcDbEntity
8
0
100
AcDbSpline
70
0
71
3
72
10
73
6
74
0
42
0.000000001
43
0.0000000001
44
0.0000000001
40
-1.4865451888713721
40
-1.4865451888713721
40
-1.4865451888713721
40
-1.4865451888713721
40
-0.74327259443582128
40
-0.74327259443582128
40
-0
40
-0
40
-0
40
-0
10
-407.56872167864037
20
-14.79904961264646
30
-7.8048678631148505e-13
10
-407.39646834529594
20
-17.270629720509557
30
-7.8048678631148505e-13
10
-407.31026373395935
20
-19.747455138931397
30
-1.9595436384634013e-13
10
-407.31026487637507
20
-24.702605768502508
30
-1.9595436384634013e-13
10
-407.39647062978173
20
-27.179431147172991
30
-7.8048678631148505e-13
10
-407.56872510277759
20
-29.651011175610307
30
-7.8048678631148505e-13
0
LWPOLYLINE
5
110
100
AcDbEntity
8
0
100
AcDbPolyline
90
4
70
1
43
0.0
10
-475.59999999999997
20
-34.725000000000001
42
0.99999999999999989
10
-475.59999999999997
20
-41.475000000000001
10
-469.59999999999991
20
-41.475000000000001
42
0.99999999999999989
10
-469.59999999999991
20
-34.725000000000001
0
LWPOLYLINE
5
111
100
AcDbEntity
8
0
100
AcDbPolyline
90
8
70
1
43
0.0
10
-479.60000000000002
20
0
42
0.41421356237309503
10
-482.59999999999997
20
-3.0000000000000004
10
-482.59999999999997
20
-41.450000000000003
42
0.41421356237309503
10
-479.60000000000002
20
-44.450000000000003
10
-231.59999999999997
20
-44.450000000000003
42
0.41421356237309503
10
-228.59999999999997
20
-41.450000000000003
10
-228.59999999999997
20
-3.0000000000000027
42
0.41421356237309503
10
-231.59999999999997
20
-2.2204460492503131e-15
0
LWPOLYLINE
5
112
100
AcDbEntity
8
0
100
AcDbPolyline
90
4
70
1
43
0.0
10
-469.59999999999991
20
-9.7249999999999996
42
0.99999999999999989
10
-469.59999999999991
20
-2.9749999999999952
10
-475.59999999999997
20
-2.9749999999999952
42
0.99999999999999989
10
-475.59999999999997
20
-9.7249999999999996
0
LWPOLYLINE
5
113
100
AcDbEntity
8
0
100
AcDbPolyline
90
4
70
1
43
0.0
10
-284.59972882682439
20
-30.600139645179606
10
-284.59972882682536
20
-13.850139645179205
10
-269.69972882682544
20
-13.850139645178601
10
-269.69972882682441
20
-30.600139645178931
0
LWPOLYLINE
5
114
100
AcDbEntity
8
0
100
AcDbPolyline
90
4
70
1
43
0.0
10
-374.59972882682439
20
-30.600139645179606
10
-374.59972882682536
20
-13.850139645179205
10
-359.69972882682544
20
-13.850139645178601
10
-359.69972882682441
20
-30.600139645178931
0
LWPOLYLINE
5
115
100
AcDbEntity
8
0
100
AcDbPolyline
90
4
70
1
43
0.0
10
-392.59972882682433
20
-30.600139645179606
10
-392.5997288268253
20
-13.850139645179205
10
-377.69972882682538
20
-13.850139645178601
10
-377.69972882682441
20
-30.600139645178931
0
LWPOLYLINE
5
116
100
AcDbEntity
8
0
100
AcDbPolyline
90
4
70
1
43
0.0
10
-356.59972882682433
20
-30.600139645179606
10
-356.5997288268253
20
-13.850139645179205
10
-341.69972882682538
20
-13.850139645178601
10
-341.69972882682436
20
-30.600139645178931
0
LWPOLYLINE
5
117
100
AcDbEntity
8
0
100
AcDbPolyline
90
4
70
1
43
0.0
10
-338.59972882682433
20
-30.600139645179606
10
-338.59972882682536
20
-13.850139645179205
10
-323.69972882682538
20
-13.850139645178601
10
-323.69972882682441
20
-30.600139645178931
0
LWPOLYLINE
5
118
100
AcDbEntity
8
0
100
AcDbPolyline
90
4
70
1
43
0.0
10
-302.59972882682433
20
-30.600139645179606
10
-302.5997288268253
20
-13.850139645179205
10
-287.69972882682538
20
-13.850139645178601
10
-287.69972882682441
20
-30.600139645178931
0
LWPOLYLINE
5
119
100
AcDbEntity
8
0
100
AcDbPolyline
90
4
70
1
43
0.0
10
-320.59972882682428
20
-30.600139645179606
10
-320.5997288268253
20
-13.850139645179205
10
-305.69972882682532
20
-13.850139645178601
10
-305.69972882682436
20
-30.600139645178931
0
LWPOLYLINE
5
120
100
AcDbEntity
8
0
100
AcDbPolyline
90
4
70
1
43
0.0
10
-266.59972882682433
20
-30.600139645179606
10
-266.5997288268253
20
-13.850139645179205
10
-251.69972882682538
20
-13.850139645178601
10
-251.69972882682436
20
-30.600139645178931
0
CIRCLE
5
121
100
AcDbEntity
8
0
100
AcDbCircle
10
-322.14972882682434
20
-38.100000000000009
30
-7.8048678631148505e-13
40
1.7499999999999716
210
0
220
0
230
1
0
CIRCLE
5
122
100
AcDbEntity
8
0
100
AcDbCircle
10
-268.14972882682434
20
-38.100000000000009
30
-7.8048678631148505e-13
40
1.7500000000000071
210
0
220
0
230
1
0
CIRCLE
5
123
100
AcDbEntity
8
0
100
AcDbCircle
10
-376.14972882682434
20
-38.100000000000009
30
-7.8048678631148505e-13
40
1.7499999999999716
210
0
220
0
230
1
0
CIRCLE
5
124
100
AcDbEntity
8
0
100
AcDbCircle
10
-322.14972882682531
20
-6.3500000000000023
30
-7.8048678631148505e-13
40
1.7500000000000426
210
0
220
0
230
1
0
CIRCLE
5
125
100
AcDbEntity
8
0
100
AcDbCircle
10
-268.14972882682537
20
-6.3500000000000023
30
-7.8048678631148505e-13
40
1.7500000000000071
210
0
220
0
230
1
0
CIRCLE
5
126
100
AcDbEntity
8
0
100
AcDbCircle
10
-376.14972882682537
20
-6.3500000000000023
30
-7.8048678631148505e-13
40
1.7499999999999716
210
0
220
0
230
1
0
CIRCLE
5
127
100
AcDbEntity
8
0
100
AcDbCircle
10
-401.41150139701881
20
-22.225000000000463
30
-7.8048678631148505e-13
40
1.7500000000000002
210
0
220
0
230
1
0
CIRCLE
5
128
100
AcDbEntity
8
0
100
AcDbCircle
10
-456.91449313910533
20
-22.225000000000463
30
-7.8048678631148505e-13
40
1.7500000000000002
210
0
220
0
230
1
0
ENDSEC
0
SECTION
2
OBJECTS
0
DICTIONARY
5
C
100
AcDbDictionary
3
ACAD_GROUP
350
D
3
ACAD_MLINESTYLE
350
17
0
DICTIONARY
5
D
100
AcDbDictionary
0
DICTIONARY
5
1A
330
C
100
AcDbDictionary
0
DICTIONARY
5
17
100
AcDbDictionary
0
ENDSEC
0
EOF
