0
SECTION
2
HEADER
9
$INSUNITS
70
4
9
$ACADVER
1
AC1014
9
$HANDSEED
5
FFFF
0
ENDSEC
0
SECTION
2
TABLES
0
TABLE
2
VPORT
5
8
100
AcDbSymbolTable
0
ENDTAB
0
TABLE
2
LTYPE
5
5
100
AcDbSymbolTable
0
LTYPE
5
14
100
AcDbSymbolTableRecord
100
AcDbLinetypeTableRecord
2
BYBLOCK
70
0
0
LTYPE
5
15
100
AcDbSymbolTableRecord
100
AcDbLinetypeTableRecord
2
BYLAYER
70
0
0
LTYPE
5
16
100
AcDbSymbolTableRecord
100
AcDbLinetypeTableRecord
2
DASHED
70
0
3
Dashed __ __ __ __ __ __ __ __ __ __ __ __ __ _
72
65
73
2
40
0.75
49
0.5
74
0
49
-0.25
74
0
0
ENDTAB
0
TABLE
2
LAYER
5
2
100
AcDbSymbolTable
70
3
0
LAYER
5
50
100
AcDbSymbolTableRecord
100
AcDbLayerTableRecord
2
1
70
0
62
7
6
DASHED
0
LAYER
5
51
100
AcDbSymbolTableRecord
100
AcDbLayerTableRecord
2
0
70
0
62
7
6
CONTINUOUS
0
ENDTAB
0
TABLE
2
STYLE
5
3
100
AcDbSymbolTable
70
1
0
STYLE
5
11
100
AcDbSymbolTableRecord
100
AcDbTextStyleTableRecord
2
STANDARD
70
0
0
ENDTAB
0
TABLE
2
VIEW
5
6
100
AcDbSymbolTable
70
0
0
ENDTAB
0
TABLE
2
UCS
5
7
100
AcDbSymbolTable
70
0
0
ENDTAB
0
TABLE
2
APPID
5
9
100
AcDbSymbolTable
70
2
0
APPID
5
12
100
AcDbSymbolTableRecord
100
AcDbRegAppTableRecord
2
ACAD
70
0
0
ENDTAB
0
TABLE
2
DIMSTYLE
5
A
100
AcDbSymbolTable
70
1
0
ENDTAB
0
TABLE
2
BLOCK_RECORD
5
1
100
AcDbSymbolTable
70
1
0
BLOCK_RECORD
5
1F
100
AcDbSymbolTableRecord
100
AcDbBlockTableRecord
2
*MODEL_SPACE
0
BLOCK_RECORD
5
1B
100
AcDbSymbolTableRecord
100
AcDbBlockTableRecord
2
*PAPER_SPACE
0
ENDTAB
0
ENDSEC
0
SECTION
2
BLOCKS
0
BLOCK
5
20
100
AcDbEntity
100
AcDbBlockBegin
2
*MODEL_SPACE
0
ENDBLK
5
21
100
AcDbEntity
100
AcDbBlockEnd
0
BLOCK
5
1C
100
AcDbEntity
100
AcDbBlockBegin
2
*PAPER_SPACE
0
ENDBLK
5
1D
100
AcDbEntity
100
AcDbBlockEnd
0
ENDSEC
0
SECTION
2
ENTITIES
0
SPLINE
5
100
100
AcDbEntity
8
0
100
AcDbSpline
70
0
71
3
72
10
73
6
74
0
42
0.000000001
43
0.0000000001
44
0.0000000001
40
-1.486545188871373
40
-1.486545188871373
40
-1.486545188871373
40
-1.486545188871373
40
-0.74327259443566673
40
-0.74327259443566673
40
-0
40
-0
40
-0
40
-0
10
-334.00572510277743
20
-29.651011175610307
30
-5.5511151231257827e-16
10
-333.83347062978169
20
-27.179431147173368
30
-5.5511151231257827e-16
10
-333.74726487637525
20
-24.702605768502146
30
6.1006755203152352e-13
10
-333.74726373395953
20
-19.747455138931034
30
6.1006755203152352e-13
10
-333.83346834529596
20
-17.270629720509969
30
-5.5511151231257827e-16
10
-334.00572167864038
20
-14.799049612646487
30
-5.5511151231257827e-16
0
SPLINE
5
101
100
AcDbEntity
8
0
100
AcDbSpline
70
0
71
3
72
16
73
12
74
0
42
0.000000001
43
0.0000000001
44
0.0000000001
40
-1.6725006152676123
40
-1.6725006152676123
40
-1.6725006152676123
40
-1.6725006152676123
40
-1.4842924936423174
40
-1.4842924936423174
40
-1.2971131970511602
40
-1.2971131970511602
40
-1.0031186179730116
40
-1.0031186179730116
40
-0.64953658546136583
40
-0.64953658546136583
40
-0
40
-0
40
-0
40
-0
10
-342.37898224042908
20
-38.540179269286718
30
-5.5511151231257827e-16
10
-341.72104586154086
20
-38.54017926928455
30
-5.5511151231257827e-16
10
-341.06247555428592
20
-38.466965051103436
30
1.9373391779708982e-12
10
-339.7821130812863
20
-38.179751944007322
30
1.9373391779708982e-12
10
-339.15888633468489
20
-37.966243707899984
30
2.0500268149703516e-12
10
-337.64153472690316
20
-37.241097608107253
30
2.0500268149703516e-12
10
-336.7988672206007
20
-36.630298620355795
30
1.7530421558831222e-12
10
-335.26183326873655
20
-34.9809114598864
30
1.7530421558831222e-12
10
-334.82679470040472
20
-34.092069900020363
30
4.0989434069160779e-12
10
-334.14531760757654
20
-32.31749633271874
30
4.0989434069160779e-12
10
-334.15625612337152
20
-31.810893921703137
30
-5.5511151231257827e-16
10
-334.00572510277743
20
-29.651011175610165
30
-5.5511151231257827e-16
0
LINE
5
102
100
AcDbEntity
8
0
100
AcDbLine
10
-342.37898224042908
20
-38.540179269286718
30
-5.5511151231257827e-16
11
-368.8211532075411
21
-38.540179269286426
31
-5.5511151231257827e-16
0
SPLINE
5
103
100
AcDbEntity
8
0
100
AcDbSpline
70
0
71
3
72
14
73
10
74
0
42
0.000000001
43
0.0000000001
44
0.0000000001
40
-1.8395196035926711
40
-1.8395196035926711
40
-1.8395196035926711
40
-1.8395196035926711
40
-1.1617660406895114
40
-1.1617660406895114
40
-0.71769847701500589
40
-0.71769847701500589
40
-0.34394416018434765
40
-0.34394416018434765
40
-0
40
-0
40
-0
40
-0
10
-377.19392922317161
20
-29.657902822013298
30
0
10
-377.04179022810115
20
-31.84087197882814
30
0
10
-377.0587681759236
20
-32.394060237732162
30
2.227107387398064e-12
10
-376.21015537066251
20
-34.449566494003996
30
2.227107387398064e-12
10
-375.68694382999365
20
-35.303571528583547
30
2.0750068330244176e-12
10
-374.22961069451515
20
-36.75522427818683
30
2.0750068330244176e-12
10
-373.33100911463885
20
-37.41408509355621
30
1.5776269179923474e-12
10
-371.117351956498
20
-38.317889368169674
30
1.5776269179923474e-12
10
-369.9676337414889
20
-38.540179269282433
30
-5.5511151231257827e-16
10
-368.8211532075411
20
-38.540179269286426
30
-5.5511151231257827e-16
0
SPLINE
5
104
100
AcDbEntity
8
0
100
AcDbSpline
70
0
71
3
72
10
73
6
74
0
42
0.000000001
43
0.0000000001
44
0.0000000001
40
-1.4879275719776937
40
-1.4879275719776937
40
-1.4879275719776937
40
-1.4879275719776937
40
-0.74396378598967794
40
-0.74396378598967794
40
-0
40
-0
40
-0
40
-0
10
-377.19392579582524
20
-14.792036220387875
30
-5.5511151231257827e-16
10
-377.36634045344022
20
-17.265914645487385
30
-5.5511151231257827e-16
10
-377.45262800369773
20
-19.745090176925711
30
-6.106226635438361e-15
10
-377.45262914717716
20
-24.704848746195243
30
-6.106226635438361e-15
10
-377.36634274007315
20
-27.184024317428381
30
-5.5511151231257827e-16
10
-377.19392922317138
20
-29.657902822015316
30
-5.5511151231257827e-16
0
SPLINE
5
105
100
AcDbEntity
8
0
100
AcDbSpline
70
0
71
3
72
16
73
12
74
0
42
0.000000001
43
0.0000000001
44
0.0000000001
40
-1.6660709674385417
40
-1.6660709674385417
40
-1.6660709674385417
40
-1.6660709674385417
40
-1.4787689128856385
40
-1.4787689128856385
40
-1.2924896748272459
40
-1.2924896748272459
40
-0.99963994874637208
40
-0.99963994874637208
40
-0.64745662834028561
40
-0.64745662834028561
40
-0
40
-0
40
-0
40
-0
10
-368.82115320754104
20
-5.909820645960747
30
-5.5511151231257827e-16
10
-369.47860107359793
20
-5.9098206459629266
30
-5.5511151231257827e-16
10
-370.13668131827671
20
-5.9829261640407383
30
-1.7469359292476838e-12
10
-371.41614413061978
20
-6.2697166779696021
30
-1.7469359292476838e-12
10
-372.03895864454159
20
-6.4829122685016705
30
-1.9534374118279629e-12
10
-373.55629443704089
20
-7.2074074641964305
30
-1.9534374118279629e-12
10
-374.39920996155433
20
-7.8179831415007683
30
-1.4166445794216997e-12
10
-375.93689497137382
20
-9.4669897698463181
30
-1.4166445794216997e-12
10
-376.3722528693358
20
-10.355710520286214
30
-3.535505221918811e-12
10
-377.05471371692346
20
-12.131107959019092
30
-3.535505221918811e-12
10
-377.04387680823027
20
-12.639069887628903
30
-5.5511151231257827e-16
10
-377.19392579582541
20
-14.792036220391218
30
-5.5511151231257827e-16
0
LINE
5
106
100
AcDbEntity
8
0
100
AcDbLine
10
-368.82115320754104
20
-5.909820645960747
30
-5.5511151231257827e-16
11
-342.37898224043278
21
-5.9098206459685958
31
-5.5511151231257827e-16
0
SPLINE
5
107
100
AcDbEntity
8
0
100
AcDbSpline
70
0
71
3
72
14
73
10
74
0
42
0.000000001
43
0.0000000001
44
0.0000000001
40
-1.8397885126187163
40
-1.8397885126187163
40
-1.8397885126187163
40
-1.8397885126187163
40
-1.1617660405567607
40
-1.1617660405567607
40
-0.71769847697116895
40
-0.71769847697116895
40
-0.34394416016052037
40
-0.34394416016052037
40
-0
40
-0
40
-0
40
-0
10
-334.00572167864027
20
-14.799049612646655
30
-5.5511151231257827e-16
10
-334.15838057445484
20
-12.608620650502944
30
-5.5511151231257827e-16
10
-334.14116385292795
20
-12.056432398328401
30
5.808686864838819e-12
10
-334.98998007742625
20
-10.000433421016886
30
5.808686864838819e-12
10
-335.51319161813819
20
-9.1464283864612845
30
6.2916338805507621e-12
10
-336.97052475368957
20
-7.694775636862131
30
6.2916338805507621e-12
10
-337.86912633360606
20
-7.0359148215404357
30
4.5563552930616424e-12
10
-340.08278349163589
20
-6.1321105470408739
30
4.5563552930616424e-12
10
-341.23250170656439
20
-5.9098206459580469
30
-5.5511151231257827e-16
10
-342.37898224043278
20
-5.9098206459685958
30
-5.5511151231257827e-16
0
LWPOLYLINE
5
108
100
AcDbEntity
8
0
100
AcDbPolyline
90
4
70
1
43
0.0
10
-475.59999999999997
20
-34.725000000000001
10
-469.59999999999991
20
-34.725000000000001
42
-0.99999999999999989
10
-469.59999999999991
20
-41.475000000000001
10
-475.59999999999997
20
-41.475000000000001
42
-0.99999999999999989
0
LWPOLYLINE
5
109
100
AcDbEntity
8
0
100
AcDbPolyline
90
4
70
1
43
0.0
10
-475.59999999999997
20
-2.9749999999999992
10
-469.59999999999991
20
-2.9749999999999952
42
-0.99999999999999989
10
-469.59999999999991
20
-9.7249999999999996
10
-475.59999999999997
20
-9.7249999999999979
42
-0.99999999999999989
0
SPLINE
5
110
100
AcDbEntity
8
0
100
AcDbSpline
70
0
71
3
72
10
73
6
74
0
42
0.000000001
43
0.0000000001
44
0.0000000001
40
-1.4865451888712209
40
-1.4865451888712209
40
-1.4865451888712209
40
-1.4865451888712209
40
-0.74327259443559057
40
-0.74327259443559057
40
-0
40
-0
40
-0
40
-0
10
-407.56872510277736
20
-29.651011175610307
30
-5.5511151231257827e-16
10
-407.39647062978167
20
-27.179431147173617
30
-5.5511151231257827e-16
10
-407.31026487637507
20
-24.70260576850189
30
6.106226635438361e-13
10
-407.31026373395935
20
-19.747455138931286
30
6.106226635438361e-13
10
-407.39646834529594
20
-17.270629720509717
30
-5.5511151231257827e-16
10
-407.56872167864037
20
-14.799049612646487
30
-5.5511151231257827e-16
0
SPLINE
5
111
100
AcDbEntity
8
0
100
AcDbSpline
70
0
71
3
72
16
73
12
74
0
42
0.000000001
43
0.0000000001
44
0.0000000001
40
-1.6689594247840336
40
-1.6689594247840336
40
-1.6689594247840336
40
-1.6689594247840336
40
-1.4811597547325548
40
-1.4811597547325548
40
-1.2943866769466028
40
-1.2943866769466028
40
-1.0010301285099183
40
-1.0010301285099183
40
-0.6482154440596879
40
-0.6482154440596879
40
-0
40
-0
40
-0
40
-0
10
-415.94198224042907
20
-38.540179269286718
30
-5.5511151231257827e-16
10
-415.28404586154119
20
-38.54017926928455
30
-5.5511151231257827e-16
10
-414.6254755542866
20
-38.466965051103557
30
1.9406698470447736e-12
10
-413.34511308128708
20
-38.179751944007556
30
1.9406698470447736e-12
10
-412.72188633468591
20
-37.966243707900347
30
2.0528023725319144e-12
10
-411.20453472690497
20
-37.241097608108234
30
2.0528023725319144e-12
10
-410.36186722060216
20
-36.630298620357024
30
1.7552626019323725e-12
10
-408.82483326873199
20
-34.980911459881881
30
1.7552626019323725e-12
10
-408.38979470040113
20
-34.092069900011253
30
4.0983882954037654e-12
10
-407.70825735982203
20
-32.317339446928088
30
4.0983882954037654e-12
10
-407.7189499469867
20
-31.806500773445588
30
-5.5511151231257827e-16
10
-407.56872510277736
20
-29.651011175610165
30
-5.5511151231257827e-16
0
LINE
5
112
100
AcDbEntity
8
0
100
AcDbLine
10
-415.94198224042907
20
-38.540179269286718
30
-5.5511151231257827e-16
11
-442.38415320754109
21
-38.540179269286426
31
-5.5511151231257827e-16
0
SPLINE
5
113
100
AcDbEntity
8
0
100
AcDbSpline
70
0
71
3
72
14
73
10
74
0
42
0.000000001
43
0.0000000001
44
0.0000000001
40
-1.8394274188260678
40
-1.8394274188260678
40
-1.8394274188260678
40
-1.8394274188260678
40
-1.1617660406758126
40
-1.1617660406758126
40
-0.71769847701160239
40
-0.71769847701160239
40
-0.34394416018432361
40
-0.34394416018432361
40
-0
40
-0
40
-0
40
-0
10
-450.7569292231716
20
-29.657902822013298
30
-5.5511151231257827e-16
10
-450.60460229069258
20
-31.843568602175971
30
-5.5511151231257827e-16
10
-450.62169844185792
20
-32.394229147283667
30
2.2282176104226892e-12
10
-449.77315537066204
20
-34.449566494004692
30
2.2282176104226892e-12
10
-449.24994382999301
20
-35.303571528584044
30
2.0750068330244176e-12
10
-447.79261069450661
20
-36.755224278195385
30
2.0750068330244176e-12
10
-446.89400911462849
20
-37.414085093560402
30
1.5776269179923474e-12
10
-444.68035195649799
20
-38.317889368169702
30
1.5776269179923474e-12
10
-443.53063374148883
20
-38.540179269282433
30
-5.5511151231257827e-16
10
-442.38415320754109
20
-38.540179269286426
30
-5.5511151231257827e-16
0
SPLINE
5
114
100
AcDbEntity
8
0
100
AcDbSpline
70
0
71
3
72
10
73
6
74
0
42
0.000000001
43
0.0000000001
44
0.0000000001
40
-1.4879275719776937
40
-1.4879275719776937
40
-1.4879275719776937
40
-1.4879275719776937
40
-0.74396378598967794
40
-0.74396378598967794
40
-0
40
-0
40
-0
40
-0
10
-450.75692579582523
20
-14.792036220387875
30
-5.5511151231257827e-16
10
-450.92934045344015
20
-17.265914645487385
30
-5.5511151231257827e-16
10
-451.01562800369771
20
-19.745090176925711
30
-6.106226635438361e-15
10
-451.01562914717709
20
-24.704848746195243
30
-6.106226635438361e-15
10
-450.92934274007314
20
-27.184024317428381
30
-5.5511151231257827e-16
10
-450.75692922317137
20
-29.657902822015316
30
-5.5511151231257827e-16
0
SPLINE
5
115
100
AcDbEntity
8
0
100
AcDbSpline
70
0
71
3
72
16
73
12
74
0
42
0.000000001
43
0.0000000001
44
0.0000000001
40
-1.6651804886733699
40
-1.6651804886733699
40
-1.6651804886733699
40
-1.6651804886733699
40
-1.47798118771937
40
-1.47798118771937
40
-1.2918041421443962
40
-1.2918041421443962
40
-0.99911507294167412
40
-0.99911507294167412
40
-0.6471249597238401
40
-0.6471249597238401
40
-0
40
-0
40
-0
40
-0
10
-442.38415320754098
20
-5.909820645960747
30
-5.5511151231257827e-16
10
-443.04160107359871
20
-5.9098206459629266
30
-5.5511151231257827e-16
10
-443.69968131827829
20
-5.9829261640409435
30
-1.748046152272309e-12
10
-444.97914413062279
20
-6.2697166779704547
30
-1.748046152272309e-12
10
-445.60195864454528
20
-6.482912268503024
30
-1.9534374118279629e-12
10
-447.1192944370448
20
-7.207407464198889
30
-1.9534374118279629e-12
10
-447.96220996155705
20
-7.8179831415031886
30
-1.4160894679093872e-12
10
-449.4998949713796
20
-9.4669897698534715
30
-1.4160894679093872e-12
10
-449.93525286933988
20
-10.355710520296936
30
-3.5349501104064984e-12
10
-450.61772978642057
20
-12.131149763239645
30
-3.5349501104064984e-12
10
-450.60695367290032
20
-12.640172774422521
30
-1.1102230246251565e-15
10
-450.7569257958254
20
-14.792036220391211
30
-1.1102230246251565e-15
0
LINE
5
116
100
AcDbEntity
8
0
100
AcDbLine
10
-442.38415320754098
20
-5.909820645960747
30
-5.5511151231257827e-16
11
-415.94198224043276
21
-5.9098206459685958
31
-5.5511151231257827e-16
0
SPLINE
5
117
100
AcDbEntity
8
0
100
AcDbSpline
70
0
71
3
72
14
73
10
74
0
42
0.000000001
43
0.0000000001
44
0.0000000001
40
-1.8397434411567177
40
-1.8397434411567177
40
-1.8397434411567177
40
-1.8397434411567177
40
-1.1617660405579093
40
-1.1617660405579093
40
-0.71769847696999212
40
-0.71769847696999212
40
-0.34394416016052037
40
-0.34394416016052037
40
-0
40
-0
40
-0
40
-0
10
-407.56872167864026
20
-14.799049612646655
30
-5.5511151231257827e-16
10
-407.72147464138084
20
-12.607270929491586
30
-5.5511151231257827e-16
10
-407.70419794769799
20
-12.056349814123653
30
5.8092419763511316e-12
10
-408.55298007742084
20
-10.000433421030007
30
5.8092419763511316e-12
10
-409.07619161812841
20
-9.1464283864709159
30
6.2921889920630747e-12
10
-410.53352475369275
20
-7.6947756368590001
30
6.2921889920630747e-12
10
-411.43212633360969
20
-7.0359148215389533
30
4.5563552930616424e-12
10
-413.64578349163588
20
-6.1321105470408739
30
4.5563552930616424e-12
10
-414.79550170656438
20
-5.9098206459580469
30
-5.5511151231257827e-16
10
-415.94198224043276
20
-5.9098206459685958
30
-5.5511151231257827e-16
0
SPLINE
5
118
100
AcDbEntity
8
0
100
AcDbSpline
70
0
71
3
72
10
73
6
74
0
42
0.000000001
43
0.0000000001
44
0.0000000001
40
-1.4865451888712966
40
-1.4865451888712966
40
-1.4865451888712966
40
-1.4865451888712966
40
-0.74327259443562854
40
-0.74327259443562854
40
-0
40
-0
40
-0
40
-0
10
-260.44272510277733
20
-29.651011175610307
30
-5.5511151231257827e-16
10
-260.27047062978164
20
-27.179431147173496
30
-5.5511151231257827e-16
10
-260.1842648763751
20
-24.702605768502018
30
6.1006755203152352e-13
10
-260.18426373395937
20
-19.747455138931159
30
6.1006755203152352e-13
10
-260.27046834529591
20
-17.270629720509842
30
-5.5511151231257827e-16
10
-260.4427216786404
20
-14.799049612646487
30
-5.5511151231257827e-16
0
SPLINE
5
119
100
AcDbEntity
8
0
100
AcDbSpline
70
0
71
3
72
16
73
12
74
0
42
0.000000001
43
0.0000000001
44
0.0000000001
40
-1.6725006152583024
40
-1.6725006152583024
40
-1.6725006152583024
40
-1.6725006152583024
40
-1.4842924936349371
40
-1.4842924936349371
40
-1.2971131970458172
40
-1.2971131970458172
40
-1.0031186179704743
40
-1.0031186179704743
40
-0.64953658546087523
40
-0.64953658546087523
40
-0
40
-0
40
-0
40
-0
10
-268.81598224042904
20
-38.540179269286718
30
-5.5511151231257827e-16
10
-268.15804586154161
20
-38.54017926928455
30
-5.5511151231257827e-16
10
-267.49947555428753
20
-38.466965051103699
30
1.9378942894832107e-12
10
-266.21911308128847
20
-38.179751944007954
30
1.9378942894832107e-12
10
-265.59588633468769
20
-37.966243707901
30
2.0505819264826641e-12
10
-264.07853472690584
20
-37.241097608109037
30
2.0505819264826641e-12
10
-263.23586722060321
20
-36.630298620357905
30
1.7530421558831222e-12
10
-261.69883326873503
20
-34.980911459885618
30
1.7530421558831222e-12
10
-261.26379470040325
20
-34.092069900016909
30
4.0989434069160779e-12
10
-260.58231760757724
20
-32.317496332720509
30
4.0989434069160779e-12
10
-260.59325612337142
20
-31.810893921701506
30
-5.5511151231257827e-16
10
-260.44272510277733
20
-29.651011175610165
30
-5.5511151231257827e-16
0
LINE
5
120
100
AcDbEntity
8
0
100
AcDbLine
10
-268.81598224042904
20
-38.540179269286718
30
-5.5511151231257827e-16
11
-295.25815320754106
21
-38.540179269286426
31
-5.5511151231257827e-16
0
SPLINE
5
121
100
AcDbEntity
8
0
100
AcDbSpline
70
0
71
3
72
14
73
10
74
0
42
0.000000001
43
0.0000000001
44
0.0000000001
40
-1.8394737178675138
40
-1.8394737178675138
40
-1.8394737178675138
40
-1.8394737178675138
40
-1.1617660406833195
40
-1.1617660406833195
40
-0.71769847701260392
40
-0.71769847701260392
40
-0.3439441601843311
40
-0.3439441601843311
40
-0
40
-0
40
-0
40
-0
10
-303.63092922317156
20
-29.657902822013298
30
0
10
-303.47869635764357
20
-31.842218880807231
30
0
10
-303.49573346521231
20
-32.394144313866036
30
2.2315482794965646e-12
10
-302.64715537066598
20
-34.44956649399515
30
2.2315482794965646e-12
10
-302.12394382999997
20
-35.303571528577017
30
2.074451721512105e-12
10
-300.6666106945093
20
-36.755224278192749
30
2.074451721512105e-12
10
-299.76800911463152
20
-37.414085093559166
30
1.5776269179923474e-12
10
-297.55435195649801
20
-38.317889368169688
30
1.5776269179923474e-12
10
-296.40463374148885
20
-38.540179269282433
30
-5.5511151231257827e-16
10
-295.25815320754106
20
-38.540179269286426
30
-5.5511151231257827e-16
0
SPLINE
5
122
100
AcDbEntity
8
0
100
AcDbSpline
70
0
71
3
72
10
73
6
74
0
42
0.000000001
43
0.0000000001
44
0.0000000001
40
-1.4879275719789149
40
-1.4879275719789149
40
-1.4879275719789149
40
-1.4879275719789149
40
-0.74396378598921697
40
-0.74396378598921697
40
-0
40
-0
40
-0
40
-0
10
-303.63092579582519
20
-14.792036220387875
30
-5.5511151231257827e-16
10
-303.80334045343926
20
-17.265914645474666
30
-5.5511151231257827e-16
10
-303.88962800369791
20
-19.745090176915497
30
-6.106226635438361e-15
10
-303.88962914717695
20
-24.704848746198312
30
-6.106226635438361e-15
10
-303.80334274007305
20
-27.184024317429913
30
-5.5511151231257827e-16
10
-303.63092922317139
20
-29.657902822015316
30
-5.5511151231257827e-16
0
SPLINE
5
123
100
AcDbEntity
8
0
100
AcDbSpline
70
0
71
3
72
16
73
12
74
0
42
0.000000001
43
0.0000000001
44
0.0000000001
40
-1.6651804887019508
40
-1.6651804887019508
40
-1.6651804887019508
40
-1.6651804887019508
40
-1.4779811877420475
40
-1.4779811877420475
40
-1.2918041421613342
40
-1.2918041421613342
40
-0.99911507294952173
40
-0.99911507294952173
40
-0.64712495972418194
40
-0.64712495972418194
40
-0
40
-0
40
-0
40
-0
10
-295.258153207541
20
-5.909820645960747
30
-5.5511151231257827e-16
10
-295.91560107359862
20
-5.9098206459629266
30
-5.5511151231257827e-16
10
-296.57368131827815
20
-5.9829261640409017
30
-1.748046152272309e-12
10
-297.85314413062235
20
-6.2697166779703775
30
-1.748046152272309e-12
10
-298.47595864454507
20
-6.4829122685029308
30
-1.9539925233402755e-12
10
-299.99329443704517
20
-7.2074074641990551
30
-1.9539925233402755e-12
10
-300.83620996155776
20
-7.8179831415036913
30
-1.4177548024463249e-12
10
-302.37389497137281
20
-9.466989769846224
30
-1.4177548024463249e-12
10
-302.8092528693345
20
-10.355710520283273
30
-3.5349501104064984e-12
10
-303.49172978642088
20
-12.131149763240455
30
-3.5349501104064984e-12
10
-303.48095367290017
20
-12.640172774421391
30
-5.5511151231257827e-16
10
-303.63092579582536
20
-14.792036220391218
30
-5.5511151231257827e-16
0
LINE
5
124
100
AcDbEntity
8
0
100
AcDbLine
10
-295.258153207541
20
-5.909820645960747
30
-5.5511151231257827e-16
11
-268.81598224043273
21
-5.9098206459685958
31
-5.5511151231257827e-16
0
SPLINE
5
125
100
AcDbEntity
8
0
100
AcDbSpline
70
0
71
3
72
14
73
10
74
0
42
0.000000001
43
0.0000000001
44
0.0000000001
40
-1.8396979573099768
40
-1.8396979573099768
40
-1.8396979573099768
40
-1.8396979573099768
40
-1.1617660405668289
40
-1.1617660405668289
40
-0.71769847697265732
40
-0.71769847697265732
40
-0.34394416016053114
40
-0.34394416016053114
40
-0
40
-0
40
-0
40
-0
10
-260.44272167864034
20
-14.799049612646655
30
0
10
-260.59556890595468
20
-12.605918372527352
30
0
10
-260.57823235442044
20
-12.056266474309698
30
5.8109073108880693e-12
10
-261.42698007742251
20
-10.0004334210261
30
5.8109073108880693e-12
10
-261.95019161813116
20
-9.1464283864681075
30
6.2910787690384495e-12
10
-263.40752475368572
20
-7.6947756368659634
30
6.2910787690384495e-12
10
-264.30612633360124
20
-7.0359148215423506
30
4.5563552930616424e-12
10
-266.51978349163579
20
-6.1321105470408765
30
4.5563552930616424e-12
10
-267.6695017065644
20
-5.9098206459580469
30
-5.5511151231257827e-16
10
-268.81598224043285
20
-5.9098206459685958
30
-5.5511151231257827e-16
0
LWPOLYLINE
5
126
100
AcDbEntity
8
0
100
AcDbPolyline
90
8
70
1
43
0.0
10
-479.60000000000002
20
-44.450000000000003
10
-231.59999999999997
20
-44.450000000000003
42
0.41421356237309503
10
-228.59999999999997
20
-41.450000000000003
10
-228.59999999999997
20
-3.0000000000000027
42
0.41421356237309503
10
-231.59999999999997
20
-2.2204460492503131e-15
10
-479.60000000000002
20
0
42
0.41421356237309503
10
-482.59999999999997
20
-3.0000000000000004
10
-482.59999999999997
20
-41.450000000000003
42
0.41421356237309503
0
LWPOLYLINE
5
127
100
AcDbEntity
8
0
100
AcDbPolyline
90
4
70
1
43
0.0
10
-241.59999999999997
20
-2.9750000000000023
42
0.99999999999999989
10
-241.59999999999997
20
-9.7250000000000032
10
-235.59999999999997
20
-9.7250000000000032
42
0.99999999999999989
10
-235.59999999999997
20
-2.9750000000000028
0
LWPOLYLINE
5
128
100
AcDbEntity
8
0
100
AcDbPolyline
90
4
70
1
43
0.0
10
-241.59999999999997
20
-34.725000000000001
42
0.99999999999999989
10
-241.59999999999997
20
-41.475000000000009
10
-235.59999999999997
20
-41.475000000000009
42
0.99999999999999989
10
-235.59999999999997
20
-34.725000000000001
0
CIRCLE
5
129
100
AcDbEntity
8
0
100
AcDbCircle
10
-383.35149313910534
20
-22.225000000000001
30
-5.5511151231257827e-16
40
1.7499999999999716
210
0
220
0
230
1
0
CIRCLE
5
130
100
AcDbEntity
8
0
100
AcDbCircle
10
-327.84850139701882
20
-22.225000000000001
30
-5.5511151231257827e-16
40
1.7499999999999716
210
0
220
0
230
1
0
CIRCLE
5
131
100
AcDbEntity
8
0
100
AcDbCircle
10
-456.91449313910533
20
-22.225000000000001
30
-5.5511151231257827e-16
40
1.7499999999999716
210
0
220
0
230
1
0
CIRCLE
5
132
100
AcDbEntity
8
0
100
AcDbCircle
10
-401.41150139701881
20
-22.225000000000001
30
-5.5511151231257827e-16
40
1.7499999999999716
210
0
220
0
230
1
0
CIRCLE
5
133
100
AcDbEntity
8
0
100
AcDbCircle
10
-309.7884931391053
20
-22.225000000000001
30
-5.5511151231257827e-16
40
1.7499999999999716
210
0
220
0
230
1
0
CIRCLE
5
134
100
AcDbEntity
8
0
100
AcDbCircle
10
-254.28550139701878
20
-22.225000000000001
30
-5.5511151231257827e-16
40
1.7499999999999716
210
0
220
0
230
1
0
ENDSEC
0
SECTION
2
OBJECTS
0
DICTIONARY
5
C
100
AcDbDictionary
3
ACAD_GROUP
350
D
3
ACAD_MLINESTYLE
350
17
0
DICTIONARY
5
D
100
AcDbDictionary
0
DICTIONARY
5
1A
330
C
100
AcDbDictionary
0
DICTIONARY
5
17
100
AcDbDictionary
0
ENDSEC
0
EOF
