0
SECTION
2
HEADER
9
$INSUNITS
70
4
9
$ACADVER
1
AC1014
9
$HANDSEED
5
FFFF
0
ENDSEC
0
SECTION
2
TABLES
0
TABLE
2
VPORT
5
8
100
AcDbSymbolTable
0
ENDTAB
0
TABLE
2
LTYPE
5
5
100
AcDbSymbolTable
0
LTYPE
5
14
100
AcDbSymbolTableRecord
100
AcDbLinetypeTableRecord
2
BYBLOCK
70
0
0
LTYPE
5
15
100
AcDbSymbolTableRecord
100
AcDbLinetypeTableRecord
2
BYLAYER
70
0
0
LTYPE
5
16
100
AcDbSymbolTableRecord
100
AcDbLinetypeTableRecord
2
DASHED
70
0
3
Dashed __ __ __ __ __ __ __ __ __ __ __ __ __ _
72
65
73
2
40
0.75
49
0.5
74
0
49
-0.25
74
0
0
ENDTAB
0
TABLE
2
LAYER
5
2
100
AcDbSymbolTable
70
3
0
LAYER
5
50
100
AcDbSymbolTableRecord
100
AcDbLayerTableRecord
2
1
70
0
62
7
6
DASHED
0
LAYER
5
51
100
AcDbSymbolTableRecord
100
AcDbLayerTableRecord
2
0
70
0
62
7
6
CONTINUOUS
0
ENDTAB
0
TABLE
2
STYLE
5
3
100
AcDbSymbolTable
70
1
0
STYLE
5
11
100
AcDbSymbolTableRecord
100
AcDbTextStyleTableRecord
2
STANDARD
70
0
0
ENDTAB
0
TABLE
2
VIEW
5
6
100
AcDbSymbolTable
70
0
0
ENDTAB
0
TABLE
2
UCS
5
7
100
AcDbSymbolTable
70
0
0
ENDTAB
0
TABLE
2
APPID
5
9
100
AcDbSymbolTable
70
2
0
APPID
5
12
100
AcDbSymbolTableRecord
100
AcDbRegAppTableRecord
2
ACAD
70
0
0
ENDTAB
0
TABLE
2
DIMSTYLE
5
A
100
AcDbSymbolTable
70
1
0
ENDTAB
0
TABLE
2
BLOCK_RECORD
5
1
100
AcDbSymbolTable
70
1
0
BLOCK_RECORD
5
1F
100
AcDbSymbolTableRecord
100
AcDbBlockTableRecord
2
*MODEL_SPACE
0
BLOCK_RECORD
5
1B
100
AcDbSymbolTableRecord
100
AcDbBlockTableRecord
2
*PAPER_SPACE
0
ENDTAB
0
ENDSEC
0
SECTION
2
BLOCKS
0
BLOCK
5
20
100
AcDbEntity
100
AcDbBlockBegin
2
*MODEL_SPACE
0
ENDBLK
5
21
100
AcDbEntity
100
AcDbBlockEnd
0
BLOCK
5
1C
100
AcDbEntity
100
AcDbBlockBegin
2
*PAPER_SPACE
0
ENDBLK
5
1D
100
AcDbEntity
100
AcDbBlockEnd
0
ENDSEC
0
SECTION
2
ENTITIES
0
SPLINE
5
100
100
AcDbEntity
8
0
100
AcDbSpline
70
0
71
3
72
10
73
6
74
0
42
0.000000001
43
0.0000000001
44
0.0000000001
40
-1.4865451888712589
40
-1.4865451888712589
40
-1.4865451888712589
40
-1.4865451888712589
40
-0.74327259443560967
40
-0.74327259443560967
40
-0
40
-0
40
-0
40
-0
10
-106.98872510277735
20
-29.651011175610307
30
0
10
-106.81647062978159
20
-27.179431147173556
30
0
10
-106.73026487637507
20
-24.702605768501954
30
6.106226635438361e-13
10
-106.73026373395935
20
-19.747455138931223
30
6.106226635438361e-13
10
-106.8164683452959
20
-17.270629720509781
30
0
10
-106.98872167864036
20
-14.799049612646487
30
0
0
SPLINE
5
101
100
AcDbEntity
8
0
100
AcDbSpline
70
0
71
3
72
16
73
12
74
0
42
0.000000001
43
0.0000000001
44
0.0000000001
40
-1.6716121671282989
40
-1.6716121671282989
40
-1.6716121671282989
40
-1.6716121671282989
40
-1.4835065619637124
40
-1.4835065619637124
40
-1.2964292214350939
40
-1.2964292214350939
40
-1.0025947804180211
40
-1.0025947804180211
40
-0.64920534309279354
40
-0.64920534309279354
40
-0
40
-0
40
-0
40
-0
10
-115.36198224042903
20
-38.540179269286718
30
0
10
-114.70404586154145
20
-38.54017926928455
30
0
10
-114.04547555428721
20
-38.466965051103635
30
1.9412249585570862e-12
10
-112.76511308128821
20
-38.17975194400789
30
1.9412249585570862e-12
10
-112.14188633468737
20
-37.966243707900901
30
2.0539125955565396e-12
10
-110.62453472690564
20
-37.241097608108866
30
2.0539125955565396e-12
10
-109.78186722060278
20
-36.630298620357593
30
1.7563728249569976e-12
10
-108.24483326873474
20
-34.980911459885114
30
1.7563728249569976e-12
10
-107.80979470040307
20
-34.092069900016547
30
4.0994985184283905e-12
10
-107.12830227394008
20
-32.31745640376711
30
4.0994985184283905e-12
10
-107.13917935748498
20
-31.809792452297611
30
0
10
-106.98872510277735
20
-29.651011175610165
30
0
0
LINE
5
102
100
AcDbEntity
8
0
100
AcDbLine
10
-115.36198224042903
20
-38.540179269286718
30
0
11
-141.80415320754105
21
-38.540179269286426
31
0
0
SPLINE
5
103
100
AcDbEntity
8
0
100
AcDbSpline
70
0
71
3
72
14
73
10
74
0
42
0.000000001
43
0.0000000001
44
0.0000000001
40
-1.8394737178143028
40
-1.8394737178143028
40
-1.8394737178143028
40
-1.8394737178143028
40
-1.1617660406719064
40
-1.1617660406719064
40
-0.7176984770128183
40
-0.7176984770128183
40
-0.34394416018433688
40
-0.34394416018433688
40
-0
40
-0
40
-0
40
-0
10
-150.17692922317156
20
-29.657902822013298
30
1.1102230246251565e-15
10
-150.02469635764351
20
-31.842218880807806
30
1.1102230246251565e-15
10
-150.04173346521242
20
-32.394144313865951
30
2.2326585025211898e-12
10
-149.19315537065378
20
-34.449566494024971
30
2.2326585025211898e-12
10
-148.66994382997757
20
-35.303571528599342
30
2.0750068330244176e-12
10
-147.21261069450952
20
-36.755224278192365
30
2.0750068330244176e-12
10
-146.31400911463206
20
-37.414085093558917
30
1.5776269179923474e-12
10
-144.10035195649789
20
-38.317889368169688
30
1.5776269179923474e-12
10
-142.95063374148884
20
-38.540179269282433
30
0
10
-141.80415320754105
20
-38.540179269286426
30
0
0
SPLINE
5
104
100
AcDbEntity
8
0
100
AcDbSpline
70
0
71
3
72
10
73
6
74
0
42
0.000000001
43
0.0000000001
44
0.0000000001
40
-1.4879275719789162
40
-1.4879275719789162
40
-1.4879275719789162
40
-1.4879275719789162
40
-0.74396378598975355
40
-0.74396378598975355
40
-0
40
-0
40
-0
40
-0
10
-150.17692579582518
20
-14.792036220387875
30
0
10
-150.34934045343977
20
-17.265914645482042
30
0
10
-150.43562800369779
20
-19.745090176921881
30
-5.5511151231257827e-15
10
-150.43562914717702
20
-24.704848746195502
30
-5.5511151231257827e-15
10
-150.34934274007315
20
-27.184024317428129
30
0
10
-150.17692922317136
20
-29.657902822015316
30
0
0
SPLINE
5
105
100
AcDbEntity
8
0
100
AcDbSpline
70
0
71
3
72
16
73
12
74
0
42
0.000000001
43
0.0000000001
44
0.0000000001
40
-1.6660709674398195
40
-1.6660709674398195
40
-1.6660709674398195
40
-1.6660709674398195
40
-1.4787689128865829
40
-1.4787689128865829
40
-1.2924896748279628
40
-1.2924896748279628
40
-0.99963994874675444
40
-0.99963994874675444
40
-0.64745662834050532
40
-0.64745662834050532
40
-0
40
-0
40
-0
40
-0
10
-141.80415320754096
20
-5.909820645960747
30
0
10
-142.46160107359819
20
-5.9098206459629266
30
0
10
-143.11968131827726
20
-5.982926164040788
30
-1.748046152272309e-12
10
-144.39914413062093
20
-6.2697166779699671
30
-1.748046152272309e-12
10
-145.02195864454325
20
-6.4829122685022735
30
-1.9539925233402755e-12
10
-146.53929443704357
20
-7.2074074641979706
30
-1.9539925233402755e-12
10
-147.38220996155621
20
-7.8179831415024479
30
-1.4177548024463249e-12
10
-148.91989497137419
20
-9.4669897698473626
30
-1.4177548024463249e-12
10
-149.35525286933577
20
-10.355710520286472
30
-3.5343949988941858e-12
10
-150.03771371692343
20
-12.131107959018891
30
-3.5343949988941858e-12
10
-150.02687680823013
20
-12.639069887628171
30
0
10
-150.17692579582533
20
-14.792036220391218
30
0
0
LINE
5
106
100
AcDbEntity
8
0
100
AcDbLine
10
-141.80415320754096
20
-5.909820645960747
30
0
11
-115.36198224043272
21
-5.9098206459685958
31
0
0
SPLINE
5
107
100
AcDbEntity
8
0
100
AcDbSpline
70
0
71
3
72
14
73
10
74
0
42
0.000000001
43
0.0000000001
44
0.0000000001
40
-1.8397434411514344
40
-1.8397434411514344
40
-1.8397434411514344
40
-1.8397434411514344
40
-1.1617660405694208
40
-1.1617660405694208
40
-0.71769847697611611
40
-0.71769847697611611
40
-0.34394416016054169
40
-0.34394416016054169
40
-0
40
-0
40
-0
40
-0
10
-106.98872167864022
20
-14.799049612646655
30
0
10
-107.14147464138074
20
-12.607270929492689
30
0
10
-107.12419794769831
20
-12.056349814122829
30
5.8103521993757568e-12
10
-107.97298007743329
20
-10.00043342099981
30
5.8103521993757568e-12
10
-108.49619161815093
20
-9.1464283864484504
30
6.2932992150876998e-12
10
-109.95352475367712
20
-7.6947756368746116
30
6.2932992150876998e-12
10
-110.85212633359072
20
-7.0359148215465792
30
4.5574655160862676e-12
10
-113.06578349163574
20
-6.1321105470409023
30
4.5574655160862676e-12
10
-114.21550170656424
20
-5.9098206459580469
30
0
10
-115.36198224043272
20
-5.9098206459685958
30
0
0
SPLINE
5
108
100
AcDbEntity
8
0
100
AcDbSpline
70
0
71
3
72
10
73
6
74
0
42
0.000000001
43
0.0000000001
44
0.0000000001
40
-1.4865451888712209
40
-1.4865451888712209
40
-1.4865451888712209
40
-1.4865451888712209
40
-0.74327259443559057
40
-0.74327259443559057
40
-0
40
-0
40
-0
40
-0
10
-182.13372510277736
20
-29.651011175610307
30
0
10
-181.96147062978162
20
-27.179431147173617
30
0
10
-181.87526487637507
20
-24.70260576850189
30
6.106226635438361e-13
10
-181.87526373395934
20
-19.747455138931286
30
6.106226635438361e-13
10
-181.96146834529594
20
-17.270629720509717
30
0
10
-182.13372167864037
20
-14.799049612646487
30
0
0
SPLINE
5
109
100
AcDbEntity
8
0
100
AcDbSpline
70
0
71
3
72
16
73
12
74
0
42
0.000000001
43
0.0000000001
44
0.0000000001
40
-1.6716121671417579
40
-1.6716121671417579
40
-1.6716121671417579
40
-1.6716121671417579
40
-1.4835065619745675
40
-1.4835065619745675
40
-1.2964292214433955
40
-1.2964292214433955
40
-1.0025947804219315
40
-1.0025947804219315
40
-0.64920534309283406
40
-0.64920534309283406
40
-0
40
-0
40
-0
40
-0
10
-190.50698224042904
20
-38.540179269286718
30
0
10
-189.84904586154201
20
-38.54017926928455
30
0
10
-189.19047555428833
20
-38.466965051103777
30
1.9390045125078359e-12
10
-187.91011308129018
20
-38.179751944008437
30
1.9390045125078359e-12
10
-187.28688633468965
20
-37.966243707901732
30
2.0511370379949767e-12
10
-185.76953472690744
20
-37.241097608110124
30
2.0511370379949767e-12
10
-184.92686722060429
20
-36.630298620358886
30
1.7535972673954348e-12
10
-183.3898332687387
20
-34.980911459889846
30
1.7535972673954348e-12
10
-182.9547947004059
20
-34.092069900023745
30
4.0994985184283905e-12
10
-182.27330227394006
20
-32.317456403767025
30
4.0994985184283905e-12
10
-182.28417935748499
20
-31.809792452297749
30
0
10
-182.13372510277736
20
-29.651011175610165
30
0
0
LINE
5
110
100
AcDbEntity
8
0
100
AcDbLine
10
-190.50698224042904
20
-38.540179269286718
30
0
11
-216.94915320754106
21
-38.540179269286426
31
0
0
SPLINE
5
111
100
AcDbEntity
8
0
100
AcDbSpline
70
0
71
3
72
14
73
10
74
0
42
0.000000001
43
0.0000000001
44
0.0000000001
40
-1.8395196035402961
40
-1.8395196035402961
40
-1.8395196035402961
40
-1.8395196035402961
40
-1.1617660406711066
40
-1.1617660406711066
40
-0.71769847701181289
40
-0.71769847701181289
40
-0.34394416018433094
40
-0.34394416018433094
40
-0
40
-0
40
-0
40
-0
10
-225.32192922317159
20
-29.657902822013298
30
1.1102230246251565e-15
10
-225.16979022810102
20
-31.840871978829334
30
1.1102230246251565e-15
10
-225.1867681759241
20
-32.394060237730628
30
2.2321033910088772e-12
10
-224.33815537065675
20
-34.449566494017553
30
2.2321033910088772e-12
10
-223.81494382998326
20
-35.303571528593636
30
2.0750068330244176e-12
10
-222.35761069450695
20
-36.755224278194937
30
2.0750068330244176e-12
10
-221.459009114629
20
-37.414085093560161
30
1.5776269179923474e-12
10
-219.24535195649793
20
-38.317889368169688
30
1.5776269179923474e-12
10
-218.09563374148883
20
-38.540179269282433
30
0
10
-216.94915320754106
20
-38.540179269286426
30
0
0
SPLINE
5
112
100
AcDbEntity
8
0
100
AcDbSpline
70
0
71
3
72
10
73
6
74
0
42
0.000000001
43
0.0000000001
44
0.0000000001
40
-1.4879275719789149
40
-1.4879275719789149
40
-1.4879275719789149
40
-1.4879275719789149
40
-0.74396378598921697
40
-0.74396378598921697
40
-0
40
-0
40
-0
40
-0
10
-225.32192579582522
20
-14.792036220387875
30
0
10
-225.49434045343926
20
-17.265914645474666
30
0
10
-225.58062800369788
20
-19.745090176915497
30
-5.5511151231257827e-15
10
-225.58062914717695
20
-24.704848746198312
30
-5.5511151231257827e-15
10
-225.49434274007302
20
-27.184024317429913
30
0
10
-225.32192922317137
20
-29.657902822015316
30
0
0
SPLINE
5
113
100
AcDbEntity
8
0
100
AcDbSpline
70
0
71
3
72
16
73
12
74
0
42
0.000000001
43
0.0000000001
44
0.0000000001
40
-1.6660709674433045
40
-1.6660709674433045
40
-1.6660709674433045
40
-1.6660709674433045
40
-1.4787689128892363
40
-1.4787689128892363
40
-1.2924896748297645
40
-1.2924896748297645
40
-0.99963994874751294
40
-0.99963994874751294
40
-0.64745662834041617
40
-0.64745662834041617
40
-0
40
-0
40
-0
40
-0
10
-216.94915320754097
20
-5.909820645960747
30
0
10
-217.60660107359854
20
-5.9098206459629266
30
0
10
-218.26468131827795
20
-5.9829261640408777
30
-1.7474910407599964e-12
10
-219.54414413062204
20
-6.2697166779702833
30
-1.7474910407599964e-12
10
-220.16695864454465
20
-6.4829122685027727
30
-1.9528823003156504e-12
10
-221.68429443704454
20
-7.2074074641986918
30
-1.9528823003156504e-12
10
-222.52720996155711
20
-7.8179831415031806
30
-1.4166445794216997e-12
10
-224.06489497137358
20
-9.4669897698468688
30
-1.4166445794216997e-12
10
-224.50025286933521
20
-10.355710520285102
30
-3.5343949988941858e-12
10
-225.18271371692333
20
-12.131107959018482
30
-3.5343949988941858e-12
10
-225.17187680823017
20
-12.63906988762847
30
0
10
-225.32192579582534
20
-14.792036220391218
30
0
0
LINE
5
114
100
AcDbEntity
8
0
100
AcDbLine
10
-216.94915320754097
20
-5.909820645960747
30
0
11
-190.50698224043273
21
-5.9098206459685958
31
0
0
SPLINE
5
115
100
AcDbEntity
8
0
100
AcDbSpline
70
0
71
3
72
14
73
10
74
0
42
0.000000001
43
0.0000000001
44
0.0000000001
40
-1.8397434411854594
40
-1.8397434411854594
40
-1.8397434411854594
40
-1.8397434411854594
40
-1.1617660405797876
40
-1.1617660405797876
40
-0.7176984769774456
40
-0.7176984769774456
40
-0.34394416016054047
40
-0.34394416016054047
40
-0
40
-0
40
-0
40
-0
10
-182.13372167864023
20
-14.799049612646655
30
0
10
-182.28647464138072
20
-12.607270929493474
30
0
10
-182.26919794769861
20
-12.056349814122093
30
5.8120175339126945e-12
10
-183.1179800774282
20
-10.000433421012341
30
5.8120175339126945e-12
10
-183.64119161814165
20
-9.1464283864576714
30
6.2921889920630747e-12
10
-185.09852475367367
20
-7.694775636878024
30
6.2921889920630747e-12
10
-185.99712633358655
20
-7.0359148215482614
30
4.556910404573955e-12
10
-188.21078349163582
20
-6.1321105470408996
30
4.556910404573955e-12
10
-189.36050170656426
20
-5.9098206459580469
30
0
10
-190.50698224043273
20
-5.9098206459685958
30
0
0
SPLINE
5
116
100
AcDbEntity
8
0
100
AcDbSpline
70
0
71
3
72
10
73
6
74
0
42
0.000000001
43
0.0000000001
44
0.0000000001
40
-1.4865451888712966
40
-1.4865451888712966
40
-1.4865451888712966
40
-1.4865451888712966
40
-0.74327259443562854
40
-0.74327259443562854
40
-0
40
-0
40
-0
40
-0
10
-257.27872510277734
20
-29.651011175610307
30
0
10
-257.1064706297816
20
-27.179431147173496
30
0
10
-257.02026487637511
20
-24.702605768502018
30
6.106226635438361e-13
10
-257.02026373395938
20
-19.747455138931159
30
6.106226635438361e-13
10
-257.10646834529592
20
-17.270629720509842
30
0
10
-257.27872167864035
20
-14.799049612646487
30
0
0
SPLINE
5
117
100
AcDbEntity
8
0
100
AcDbSpline
70
0
71
3
72
16
73
12
74
0
42
0.000000001
43
0.0000000001
44
0.0000000001
40
-1.6725006152583024
40
-1.6725006152583024
40
-1.6725006152583024
40
-1.6725006152583024
40
-1.4842924936349371
40
-1.4842924936349371
40
-1.2971131970458172
40
-1.2971131970458172
40
-1.0031186179704743
40
-1.0031186179704743
40
-0.64953658546087523
40
-0.64953658546087523
40
-0
40
-0
40
-0
40
-0
10
-265.65198224042899
20
-38.540179269286718
30
0
10
-264.99404586154157
20
-38.54017926928455
30
0
10
-264.33547555428748
20
-38.466965051103699
30
1.9384494009955233e-12
10
-263.05511308128848
20
-38.179751944007954
30
1.9384494009955233e-12
10
-262.43188633468765
20
-37.966243707901
30
2.0511370379949767e-12
10
-260.9145347269058
20
-37.241097608109037
30
2.0511370379949767e-12
10
-260.07186722060317
20
-36.630298620357905
30
1.7535972673954348e-12
10
-258.53483326873504
20
-34.980911459885618
30
1.7535972673954348e-12
10
-258.09979470040327
20
-34.092069900016909
30
4.0994985184283905e-12
10
-257.41831760757719
20
-32.317496332720509
30
4.0994985184283905e-12
10
-257.42925612337137
20
-31.810893921701506
30
0
10
-257.27872510277734
20
-29.651011175610165
30
0
0
LINE
5
118
100
AcDbEntity
8
0
100
AcDbLine
10
-265.65198224042899
20
-38.540179269286718
30
0
11
-292.09415320754101
21
-38.540179269286426
31
0
0
SPLINE
5
119
100
AcDbEntity
8
0
100
AcDbSpline
70
0
71
3
72
14
73
10
74
0
42
0.000000001
43
0.0000000001
44
0.0000000001
40
-1.8394737178675138
40
-1.8394737178675138
40
-1.8394737178675138
40
-1.8394737178675138
40
-1.1617660406833195
40
-1.1617660406833195
40
-0.71769847701260392
40
-0.71769847701260392
40
-0.3439441601843311
40
-0.3439441601843311
40
-0
40
-0
40
-0
40
-0
10
-300.46692922317158
20
-29.657902822013298
30
1.1102230246251565e-15
10
-300.31469635764353
20
-31.842218880807231
30
1.1102230246251565e-15
10
-300.33173346521227
20
-32.394144313866036
30
2.2321033910088772e-12
10
-299.483155370666
20
-34.44956649399515
30
2.2321033910088772e-12
10
-298.95994382999993
20
-35.303571528577017
30
2.0750068330244176e-12
10
-297.50261069450926
20
-36.755224278192749
30
2.0750068330244176e-12
10
-296.60400911463148
20
-37.414085093559166
30
1.5776269179923474e-12
10
-294.39035195649797
20
-38.317889368169688
30
1.5776269179923474e-12
10
-293.24063374148881
20
-38.540179269282433
30
0
10
-292.09415320754101
20
-38.540179269286426
30
0
0
SPLINE
5
120
100
AcDbEntity
8
0
100
AcDbSpline
70
0
71
3
72
10
73
6
74
0
42
0.000000001
43
0.0000000001
44
0.0000000001
40
-1.4879275719789149
40
-1.4879275719789149
40
-1.4879275719789149
40
-1.4879275719789149
40
-0.74396378598921697
40
-0.74396378598921697
40
-0
40
-0
40
-0
40
-0
10
-300.4669257958252
20
-14.792036220387875
30
0
10
-300.63934045343922
20
-17.265914645474666
30
0
10
-300.72562800369786
20
-19.745090176915497
30
-5.5511151231257827e-15
10
-300.72562914717696
20
-24.704848746198312
30
-5.5511151231257827e-15
10
-300.639342740073
20
-27.184024317429913
30
0
10
-300.46692922317135
20
-29.657902822015316
30
0
0
SPLINE
5
121
100
AcDbEntity
8
0
100
AcDbSpline
70
0
71
3
72
16
73
12
74
0
42
0.000000001
43
0.0000000001
44
0.0000000001
40
-1.6651804887019508
40
-1.6651804887019508
40
-1.6651804887019508
40
-1.6651804887019508
40
-1.4779811877420475
40
-1.4779811877420475
40
-1.2918041421613342
40
-1.2918041421613342
40
-0.99911507294952173
40
-0.99911507294952173
40
-0.64712495972418194
40
-0.64712495972418194
40
-0
40
-0
40
-0
40
-0
10
-292.09415320754096
20
-5.909820645960747
30
0
10
-292.75160107359858
20
-5.9098206459629266
30
0
10
-293.4096813182781
20
-5.9829261640409017
30
-1.7469359292476838e-12
10
-294.68914413062231
20
-6.2697166779703775
30
-1.7469359292476838e-12
10
-295.31195864454509
20
-6.4829122685029308
30
-1.9528823003156504e-12
10
-296.82929443704518
20
-7.2074074641990551
30
-1.9528823003156504e-12
10
-297.67220996155777
20
-7.8179831415036913
30
-1.4166445794216997e-12
10
-299.20989497137282
20
-9.466989769846224
30
-1.4166445794216997e-12
10
-299.64525286933451
20
-10.355710520283273
30
-3.5343949988941858e-12
10
-300.32772978642083
20
-12.131149763240455
30
-3.5343949988941858e-12
10
-300.31695367290018
20
-12.640172774421391
30
0
10
-300.46692579582532
20
-14.792036220391218
30
0
0
LINE
5
122
100
AcDbEntity
8
0
100
AcDbLine
10
-292.09415320754096
20
-5.909820645960747
30
0
11
-265.65198224043274
21
-5.9098206459685958
31
0
0
SPLINE
5
123
100
AcDbEntity
8
0
100
AcDbSpline
70
0
71
3
72
14
73
10
74
0
42
0.000000001
43
0.0000000001
44
0.0000000001
40
-1.8397885126268867
40
-1.8397885126268867
40
-1.8397885126268867
40
-1.8397885126268867
40
-1.1617660405673884
40
-1.1617660405673884
40
-0.71769847697548161
40
-0.71769847697548161
40
-0.3439441601605342
40
-0.3439441601605342
40
-0
40
-0
40
-0
40
-0
10
-257.27872167864018
20
-14.799049612646655
30
0
10
-257.43138057445481
20
-12.60862065050263
30
0
10
-257.41416385292769
20
-12.056432398328285
30
5.8097970878634442e-12
10
-258.26298007743304
20
-10.000433421000508
30
5.8097970878634442e-12
10
-258.78619161815055
20
-9.1464283864487719
30
6.2927441035753873e-12
10
-260.2435247536788
20
-7.6947756368729685
30
6.2927441035753873e-12
10
-261.14212633359261
20
-7.0359148215458109
30
4.5574655160862676e-12
10
-263.35578349163575
20
-6.1321105470408916
30
4.5574655160862676e-12
10
-264.50550170656425
20
-5.9098206459580469
30
0
10
-265.65198224043274
20
-5.9098206459685958
30
0
0
SPLINE
5
124
100
AcDbEntity
8
0
100
AcDbSpline
70
0
71
3
72
10
73
6
74
0
42
0.000000001
43
0.0000000001
44
0.0000000001
40
-1.486545188871373
40
-1.486545188871373
40
-1.486545188871373
40
-1.486545188871373
40
-0.74327259443566673
40
-0.74327259443566673
40
-0
40
-0
40
-0
40
-0
10
-332.42372510277738
20
-29.651011175610307
30
0
10
-332.25147062978169
20
-27.179431147173368
30
0
10
-332.1652648763752
20
-24.702605768502146
30
6.106226635438361e-13
10
-332.16526373395948
20
-19.747455138931034
30
6.106226635438361e-13
10
-332.25146834529596
20
-17.270629720509969
30
0
10
-332.42372167864039
20
-14.799049612646487
30
0
0
SPLINE
5
125
100
AcDbEntity
8
0
100
AcDbSpline
70
0
71
3
72
16
73
12
74
0
42
0.000000001
43
0.0000000001
44
0.0000000001
40
-1.6725006152676123
40
-1.6725006152676123
40
-1.6725006152676123
40
-1.6725006152676123
40
-1.4842924936423174
40
-1.4842924936423174
40
-1.2971131970511602
40
-1.2971131970511602
40
-1.0031186179730116
40
-1.0031186179730116
40
-0.64953658546136583
40
-0.64953658546136583
40
-0
40
-0
40
-0
40
-0
10
-340.79698224042909
20
-38.540179269286718
30
0
10
-340.13904586154081
20
-38.54017926928455
30
0
10
-339.48047555428593
20
-38.466965051103436
30
1.9378942894832107e-12
10
-338.2001130812863
20
-38.179751944007322
30
1.9378942894832107e-12
10
-337.5768863346849
20
-37.966243707899984
30
2.0505819264826641e-12
10
-336.05953472690317
20
-37.241097608107253
30
2.0505819264826641e-12
10
-335.21686722060065
20
-36.630298620355795
30
1.7535972673954348e-12
10
-333.67983326873656
20
-34.9809114598864
30
1.7535972673954348e-12
10
-333.24479470040473
20
-34.092069900020363
30
4.1000536299407031e-12
10
-332.56331760757655
20
-32.31749633271874
30
4.1000536299407031e-12
10
-332.57425612337153
20
-31.810893921703137
30
0
10
-332.42372510277738
20
-29.651011175610165
30
0
0
LINE
5
126
100
AcDbEntity
8
0
100
AcDbLine
10
-340.79698224042909
20
-38.540179269286718
30
0
11
-367.23915320754111
21
-38.540179269286426
31
0
0
SPLINE
5
127
100
AcDbEntity
8
0
100
AcDbSpline
70
0
71
3
72
14
73
10
74
0
42
0.000000001
43
0.0000000001
44
0.0000000001
40
-1.8395196035926711
40
-1.8395196035926711
40
-1.8395196035926711
40
-1.8395196035926711
40
-1.1617660406895114
40
-1.1617660406895114
40
-0.71769847701500589
40
-0.71769847701500589
40
-0.34394416018434765
40
-0.34394416018434765
40
-0
40
-0
40
-0
40
-0
10
-375.61192922317161
20
-29.657902822013298
30
1.1102230246251565e-15
10
-375.45979022810116
20
-31.84087197882814
30
1.1102230246251565e-15
10
-375.47676817592361
20
-32.394060237732162
30
2.227107387398064e-12
10
-374.62815537066251
20
-34.449566494003996
30
2.227107387398064e-12
10
-374.10494382999366
20
-35.303571528583547
30
2.0750068330244176e-12
10
-372.64761069451515
20
-36.75522427818683
30
2.0750068330244176e-12
10
-371.74900911463885
20
-37.41408509355621
30
1.5776269179923474e-12
10
-369.535351956498
20
-38.317889368169674
30
1.5776269179923474e-12
10
-368.3856337414889
20
-38.540179269282433
30
0
10
-367.23915320754111
20
-38.540179269286426
30
0
0
SPLINE
5
128
100
AcDbEntity
8
0
100
AcDbSpline
70
0
71
3
72
10
73
6
74
0
42
0.000000001
43
0.0000000001
44
0.0000000001
40
-1.4879275719776937
40
-1.4879275719776937
40
-1.4879275719776937
40
-1.4879275719776937
40
-0.74396378598967794
40
-0.74396378598967794
40
-0
40
-0
40
-0
40
-0
10
-375.61192579582524
20
-14.792036220387875
30
0
10
-375.78434045344017
20
-17.265914645487385
30
0
10
-375.87062800369773
20
-19.745090176925711
30
-5.5511151231257827e-15
10
-375.87062914717711
20
-24.704848746195243
30
-5.5511151231257827e-15
10
-375.78434274007316
20
-27.184024317428381
30
0
10
-375.61192922317139
20
-29.657902822015316
30
0
0
SPLINE
5
129
100
AcDbEntity
8
0
100
AcDbSpline
70
0
71
3
72
16
73
12
74
0
42
0.000000001
43
0.0000000001
44
0.0000000001
40
-1.6660709674385417
40
-1.6660709674385417
40
-1.6660709674385417
40
-1.6660709674385417
40
-1.4787689128856385
40
-1.4787689128856385
40
-1.2924896748272459
40
-1.2924896748272459
40
-0.99963994874637208
40
-0.99963994874637208
40
-0.64745662834028561
40
-0.64745662834028561
40
-0
40
-0
40
-0
40
-0
10
-367.23915320754099
20
-5.909820645960747
30
0
10
-367.89660107359794
20
-5.9098206459629266
30
0
10
-368.55468131827672
20
-5.9829261640407383
30
-1.7463808177353712e-12
10
-369.83414413061979
20
-6.2697166779696021
30
-1.7463808177353712e-12
10
-370.4569586445416
20
-6.4829122685016705
30
-1.9528823003156504e-12
10
-371.9742944370409
20
-7.2074074641964305
30
-1.9528823003156504e-12
10
-372.81720996155434
20
-7.8179831415007683
30
-1.4155343563970746e-12
10
-374.35489497137382
20
-9.4669897698463181
30
-1.4155343563970746e-12
10
-374.79025286933575
20
-10.355710520286214
30
-3.5349501104064984e-12
10
-375.47271371692347
20
-12.131107959019092
30
-3.5349501104064984e-12
10
-375.46187680823027
20
-12.639069887628903
30
0
10
-375.61192579582541
20
-14.792036220391218
30
0
0
LINE
5
130
100
AcDbEntity
8
0
100
AcDbLine
10
-367.23915320754099
20
-5.909820645960747
30
0
11
-340.79698224043278
21
-5.9098206459685958
31
0
0
SPLINE
5
131
100
AcDbEntity
8
0
100
AcDbSpline
70
0
71
3
72
14
73
10
74
0
42
0.000000001
43
0.0000000001
44
0.0000000001
40
-1.8397434411990603
40
-1.8397434411990603
40
-1.8397434411990603
40
-1.8397434411990603
40
-1.1617660405832795
40
-1.1617660405832795
40
-0.71769847697762801
40
-0.71769847697762801
40
-0.34394416016054058
40
-0.34394416016054058
40
-0
40
-0
40
-0
40
-0
10
-332.42372167864028
20
-14.799049612646655
30
0
10
-332.57647464138074
20
-12.607270929493989
30
0
10
-332.55919794769875
20
-12.056349814122097
30
5.8120175339126945e-12
10
-333.40798007742558
20
-10.000433421018863
30
5.8120175339126945e-12
10
-333.93119161813718
20
-9.1464283864622118
30
6.2921889920630747e-12
10
-335.38852475367327
20
-7.6947756368784814
30
6.2921889920630747e-12
10
-336.287126333586
20
-7.0359148215484897
30
4.556910404573955e-12
10
-338.50078349163584
20
-6.1321105470408996
30
4.556910404573955e-12
10
-339.65050170656434
20
-5.9098206459580469
30
0
10
-340.79698224043278
20
-5.9098206459685958
30
0
0
SPLINE
5
132
100
AcDbEntity
8
0
100
AcDbSpline
70
0
71
3
72
10
73
6
74
0
42
0.000000001
43
0.0000000001
44
0.0000000001
40
-1.4865451888712209
40
-1.4865451888712209
40
-1.4865451888712209
40
-1.4865451888712209
40
-0.74327259443559057
40
-0.74327259443559057
40
-0
40
-0
40
-0
40
-0
10
-407.56872510277736
20
-29.651011175610307
30
0
10
-407.39647062978167
20
-27.179431147173617
30
0
10
-407.31026487637507
20
-24.70260576850189
30
6.106226635438361e-13
10
-407.31026373395935
20
-19.747455138931286
30
6.106226635438361e-13
10
-407.39646834529594
20
-17.270629720509717
30
0
10
-407.56872167864037
20
-14.799049612646487
30
0
0
SPLINE
5
133
100
AcDbEntity
8
0
100
AcDbSpline
70
0
71
3
72
16
73
12
74
0
42
0.000000001
43
0.0000000001
44
0.0000000001
40
-2.8320847756846437
40
-2.8320847756846437
40
-2.8320847756846437
40
-2.8320847756846437
40
-2.3410038564808282
40
-2.3410038564808282
40
-1.8539797446783961
40
-1.8539797446783961
40
-1.2558555943061012
40
-1.2558555943061012
40
-0.62917384502480733
40
-0.62917384502480733
40
-0
40
-0
40
-0
40
-0
10
-415.94198224042907
20
-38.540179269286718
30
0
10
-415.13605651428287
20
-38.54017926928406
30
0
10
-414.32901501392371
20
-38.430335253835658
30
-8.8817841970012523e-14
10
-412.78247288078143
20
-38.001294522501908
30
-8.8817841970012523e-14
10
-412.04290458695925
20
-37.683933418239242
30
-1.2212453270876722e-13
10
-410.51773483683513
20
-36.747125193621379
30
-1.2212453270876722e-13
10
-409.76830289250631
20
-36.081703571784672
30
-3.907985046680551e-13
10
-408.54589946254237
20
-34.475408134906033
30
-3.907985046680551e-13
10
-408.15215473313106
20
-33.60705089781613
30
1.9501067427540875e-12
10
-407.7026518989644
20
-31.974905409032445
30
1.9501067427540875e-12
10
-407.71453702953045
20
-31.743182367471199
30
0
10
-407.56872510277736
20
-29.651011175610165
30
0
0
LINE
5
134
100
AcDbEntity
8
0
100
AcDbLine
10
-415.94198224042907
20
-38.540179269286718
30
0
11
-442.38415320754109
21
-38.540179269286426
31
0
0
SPLINE
5
135
100
AcDbEntity
8
0
100
AcDbSpline
70
0
71
3
72
14
73
10
74
0
42
0.000000001
43
0.0000000001
44
0.0000000001
40
-1.8394274188260678
40
-1.8394274188260678
40
-1.8394274188260678
40
-1.8394274188260678
40
-1.1617660406758126
40
-1.1617660406758126
40
-0.71769847701160239
40
-0.71769847701160239
40
-0.34394416018432361
40
-0.34394416018432361
40
-0
40
-0
40
-0
40
-0
10
-450.7569292231716
20
-29.657902822013298
30
0
10
-450.60460229069258
20
-31.843568602175971
30
0
10
-450.62169844185792
20
-32.394229147283667
30
2.2287727219350018e-12
10
-449.77315537066204
20
-34.449566494004692
30
2.2287727219350018e-12
10
-449.24994382999301
20
-35.303571528584044
30
2.0755619445367302e-12
10
-447.79261069450661
20
-36.755224278195385
30
2.0755619445367302e-12
10
-446.89400911462849
20
-37.414085093560402
30
1.57818202950466e-12
10
-444.68035195649799
20
-38.317889368169702
30
1.57818202950466e-12
10
-443.53063374148883
20
-38.540179269282433
30
0
10
-442.38415320754109
20
-38.540179269286426
30
0
0
SPLINE
5
136
100
AcDbEntity
8
0
100
AcDbSpline
70
0
71
3
72
10
73
6
74
0
42
0.000000001
43
0.0000000001
44
0.0000000001
40
-1.4879275719776937
40
-1.4879275719776937
40
-1.4879275719776937
40
-1.4879275719776937
40
-0.74396378598967794
40
-0.74396378598967794
40
-0
40
-0
40
-0
40
-0
10
-450.75692579582523
20
-14.792036220387875
30
0
10
-450.92934045344015
20
-17.265914645487385
30
0
10
-451.01562800369771
20
-19.745090176925711
30
-5.5511151231257827e-15
10
-451.01562914717709
20
-24.704848746195243
30
-5.5511151231257827e-15
10
-450.92934274007314
20
-27.184024317428381
30
0
10
-450.75692922317137
20
-29.657902822015316
30
0
0
SPLINE
5
137
100
AcDbEntity
8
0
100
AcDbSpline
70
0
71
3
72
16
73
12
74
0
42
0.000000001
43
0.0000000001
44
0.0000000001
40
-1.6660709674552145
40
-1.6660709674552145
40
-1.6660709674552145
40
-1.6660709674552145
40
-1.4787689128988468
40
-1.4787689128988468
40
-1.2924896748370989
40
-1.2924896748370989
40
-0.9996399487509624
40
-0.9996399487509624
40
-0.6474566283404195
40
-0.6474566283404195
40
-0
40
-0
40
-0
40
-0
10
-442.38415320754098
20
-5.909820645960747
30
0
10
-443.04160107359837
20
-5.9098206459629266
30
0
10
-443.69968131827756
20
-5.982926164040836
30
-1.7486012637846216e-12
10
-444.97914413062119
20
-6.2697166779700382
30
-1.7486012637846216e-12
10
-445.60195864454363
20
-6.4829122685023961
30
-1.9539925233402755e-12
10
-447.11929443704429
20
-7.2074074641983294
30
-1.9539925233402755e-12
10
-447.96220996155671
20
-7.817983141502812
30
-1.4177548024463249e-12
10
-449.49989497137051
20
-9.4669897698434582
30
-1.4177548024463249e-12
10
-449.935252869333
20
-10.355710520279457
30
-3.5338398873818733e-12
10
-450.61771371692316
20
-12.131107959018024
30
-3.5338398873818733e-12
10
-450.60687680823025
20
-12.639069887628459
30
0
10
-450.7569257958254
20
-14.792036220391218
30
0
0
LINE
5
138
100
AcDbEntity
8
0
100
AcDbLine
10
-442.38415320754098
20
-5.909820645960747
30
0
11
-415.94198224043276
21
-5.9098206459685958
31
0
0
SPLINE
5
139
100
AcDbEntity
8
0
100
AcDbSpline
70
0
71
3
72
14
73
10
74
0
42
0.000000001
43
0.0000000001
44
0.0000000001
40
-1.8397434411567177
40
-1.8397434411567177
40
-1.8397434411567177
40
-1.8397434411567177
40
-1.1617660405579093
40
-1.1617660405579093
40
-0.71769847696999212
40
-0.71769847696999212
40
-0.34394416016052037
40
-0.34394416016052037
40
-0
40
-0
40
-0
40
-0
10
-407.56872167864026
20
-14.799049612646655
30
0
10
-407.72147464138084
20
-12.607270929491586
30
0
10
-407.70419794769799
20
-12.056349814123653
30
5.8097970878634442e-12
10
-408.55298007742084
20
-10.000433421030007
30
5.8097970878634442e-12
10
-409.07619161812841
20
-9.1464283864709159
30
6.2927441035753873e-12
10
-410.53352475369275
20
-7.6947756368590001
30
6.2927441035753873e-12
10
-411.43212633360969
20
-7.0359148215389533
30
4.5574655160862676e-12
10
-413.64578349163588
20
-6.1321105470408739
30
4.5574655160862676e-12
10
-414.79550170656438
20
-5.9098206459580469
30
0
10
-415.94198224043276
20
-5.9098206459685958
30
0
0
LINE
5
140
100
AcDbEntity
8
0
100
AcDbLine
10
-66.658017759567301
20
-5.9098206459685905
30
0
11
-40.215846792459047
21
-5.9098206459607505
31
0
0
SPLINE
5
141
100
AcDbEntity
8
0
100
AcDbSpline
70
0
71
3
72
14
73
10
74
0
42
0.000000001
43
0.0000000001
44
0.0000000001
40
-1.8403984376119753
40
-1.8403984376119753
40
-1.8403984376119753
40
-1.8403984376119753
40
-1.1619808043420943
40
-1.1619808043420943
40
-0.71769847700825995
40
-0.71769847700825995
40
-0.34394416018589152
40
-0.34394416018589152
40
-0
40
-0
40
-0
40
-0
10
-31.843074204174684
20
-14.792036220391223
30
0
10
-31.995223670775879
20
-12.608931326515087
30
0
10
-31.97823845953306
20
-12.055890588214822
30
-1.2756462552943049e-12
10
-32.826606753551715
20
-10.000978593023737
30
-1.2756462552943049e-12
10
-33.349673467794069
20
-9.1468095971844008
30
-1.2134737659152961e-12
10
-34.807389305496223
20
-7.6947756370470497
30
-1.2134737659152961e-12
10
-35.705990885378142
20
-7.0359148216856724
30
-1.1002310174035301e-12
10
-37.919648043495741
20
-6.1321105470773318
30
-1.1002310174035301e-12
10
-39.069366258506072
20
-5.9098206459645493
30
0
10
-40.215846792459047
20
-5.9098206459607496
30
0
0
SPLINE
5
142
100
AcDbEntity
8
0
100
AcDbSpline
70
0
71
3
72
10
73
6
74
0
42
0.000000001
43
0.0000000001
44
0.0000000001
40
-1.4879275719823724
40
-1.4879275719823724
40
-1.4879275719823724
40
-1.4879275719823724
40
-0.74396378599102475
40
-0.74396378599102475
40
-0
40
-0
40
-0
40
-0
10
-31.843070776828668
20
-29.65790282201532
30
0
10
-31.670657259927012
20
-27.184024317430108
30
0
10
-31.584370852823032
20
-24.704848746197928
30
5.5511151231257827e-15
10
-31.584371996302217
20
-19.745090176918566
30
5.5511151231257827e-15
10
-31.670659546560486
20
-17.265914645478674
30
0
10
-31.843074204174826
20
-14.792036220387878
30
0
0
SPLINE
5
143
100
AcDbEntity
8
0
100
AcDbSpline
70
0
71
3
72
16
73
12
74
0
42
0.000000001
43
0.0000000001
44
0.0000000001
40
-1.6661962961473769
40
-1.6661962961473769
40
-1.6661962961473769
40
-1.6661962961473769
40
-1.4788629618269518
40
-1.4788629618269518
40
-1.2925525786914001
40
-1.2925525786914001
40
-0.99964468726314726
40
-0.99964468726314726
40
-0.64741376226569791
40
-0.64741376226569791
40
-0
40
-0
40
-0
40
-0
10
-40.215846792458976
20
-38.540179269286426
30
0
10
-39.558415636135067
20
-38.540179269284138
30
0
10
-38.900352154151705
20
-38.467077467896971
30
-3.0845326293160724e-11
10
-37.620920116922711
20
-38.180301403471915
30
-3.0845326293160724e-11
10
-36.998119705528502
20
-37.967116503121602
30
-3.0550006968610433e-11
10
-35.480784465277381
20
-37.242643571856895
30
-3.0550006968610433e-11
10
-34.637860455434158
20
-36.632075534920759
30
-3.0830338282328285e-11
10
-33.100204656818576
20
-34.983137131505174
30
-3.0830338282328285e-11
10
-32.664816389361796
20
-34.094451676988456
30
-2.9333757645133574e-11
10
-31.982276971042786
20
-32.318789580210719
30
-2.9333757645133574e-11
10
-31.993108837477191
20
-31.810726682804145
30
0
10
-31.843070776828455
20
-29.657902822013305
30
0
0
LINE
5
144
100
AcDbEntity
8
0
100
AcDbLine
10
-40.215846792458976
20
-38.540179269286426
30
0
11
-66.658017759570996
21
-38.54017926928671
31
0
0
SPLINE
5
145
100
AcDbEntity
8
0
100
AcDbSpline
70
0
71
3
72
14
73
10
74
0
42
0.000000001
43
0.0000000001
44
0.0000000001
40
-1.8405769686381639
40
-1.8405769686381639
40
-1.8405769686381639
40
-1.8405769686381639
40
-1.1619808043368751
40
-1.1619808043368751
40
-0.71769847700692235
40
-0.71769847700692235
40
-0.34394416018614327
40
-0.34394416018614327
40
-0
40
-0
40
-0
40
-0
10
-75.031274897222673
20
-29.651011175610158
30
0
10
-74.878417214676006
20
-31.84427785139016
30
0
10
-74.895760999485731
20
-32.393782556228032
30
1.0158540675320182e-12
10
-74.04725779848016
20
-34.449021322220268
30
1.0158540675320182e-12
10
-73.524191084238623
20
-35.303190318060082
30
6.9166894434147252e-13
10
-72.066475246531709
20
-36.755224278203023
30
6.9166894434147252e-13
10
-71.167873666649058
20
-37.414085093562768
30
5.9952043329758453e-13
10
-68.954216508535922
20
-38.317889368170015
30
5.9952043329758453e-13
10
-67.804498293524802
20
-38.54017926928293
30
0
10
-66.658017759570996
20
-38.54017926928671
30
0
0
SPLINE
5
146
100
AcDbEntity
8
0
100
AcDbSpline
70
0
71
3
72
10
73
6
74
0
42
0.000000001
43
0.0000000001
44
0.0000000001
40
-1.4865451888711363
40
-1.4865451888711363
40
-1.4865451888711363
40
-1.4865451888711363
40
-0.7432725944355878
40
-0.7432725944355878
40
-0
40
-0
40
-0
40
-0
10
-75.031278321359665
20
-14.799049612646479
30
0
10
-75.203531654704094
20
-17.270629720509568
30
0
10
-75.289736266040705
20
-19.747455138931421
30
5.8453242246514492e-13
10
-75.289735123624979
20
-24.702605768501744
30
5.8453242246514492e-13
10
-75.203529370218405
20
-27.179431147173752
30
0
10
-75.031274897222673
20
-29.6510111756103
30
0
0
SPLINE
5
147
100
AcDbEntity
8
0
100
AcDbSpline
70
0
71
3
72
16
73
12
74
0
42
0.000000001
43
0.0000000001
44
0.0000000001
40
-1.6726304372389835
40
-1.6726304372389835
40
-1.6726304372389835
40
-1.6726304372389835
40
-1.4843901841675582
40
-1.4843901841675582
40
-1.2971788951789252
40
-1.2971788951789252
40
-1.0031247502811529
40
-1.0031247502811529
40
-0.64949385920899261
40
-0.64949385920899261
40
-0
40
-0
40
-0
40
-0
10
-66.658017759567301
20
-5.9098206459685905
30
0
10
-67.315937283777473
20
-5.9098206459625366
30
0
10
-67.974490682842017
20
-5.9830311124222044
30
3.6248781754011361e-12
10
-69.254822117568807
20
-6.270229634092007
30
3.6248781754011361e-12
10
-69.878034643182659
20
-6.4837270795736828
30
4.4797499043625066e-12
10
-71.395385715928697
20
-7.2088507219186422
30
4.4797499043625066e-12
10
-72.238061777666729
20
-7.8196420068549131
30
4.3109960046194828e-12
10
-73.775065927502141
20
-9.4689599561906821
30
4.3109960046194828e-12
10
-74.210135276010831
20
-10.357765689518526
30
2.8110846983508964e-12
10
-74.891691885123521
20
-12.132606483581148
30
2.8110846983508964e-12
10
-74.880758198496295
20
-12.63930887335672
30
0
10
-75.031278321359807
20
-14.799049612646648
30
0
0
LWPOLYLINE
5
148
100
AcDbEntity
8
0
100
AcDbPolyline
90
4
70
1
43
0.0
10
-13.000000000000004
20
-34.725000000000001
42
0.99999999999999989
10
-13.000000000000004
20
-41.475000000000009
10
-6.9999999999999964
20
-41.475000000000009
42
0.99999999999999989
10
-6.9999999999999964
20
-34.725000000000001
0
LWPOLYLINE
5
149
100
AcDbEntity
8
0
100
AcDbPolyline
90
4
70
1
43
0.0
10
-13.000000000000004
20
-2.9750000000000023
42
0.99999999999999989
10
-13.000000000000004
20
-9.7250000000000032
10
-6.9999999999999964
20
-9.7250000000000032
42
0.99999999999999989
10
-6.9999999999999964
20
-2.9750000000000028
0
LWPOLYLINE
5
150
100
AcDbEntity
8
0
100
AcDbPolyline
90
8
70
1
43
0.0
10
-3.0000000000000036
20
0
10
-479.60000000000002
20
0
42
0.41421356237309503
10
-482.59999999999997
20
-3.0000000000000004
10
-482.59999999999997
20
-41.450000000000003
42
0.41421356237309503
10
-479.60000000000002
20
-44.450000000000003
10
-3.0000000000000426
20
-44.450000000000003
42
0.41421356237309781
10
-1.3322676295501878e-14
20
-41.450000000000003
10
0
20
-3.0000000000000027
42
0.41421356237309537
0
LWPOLYLINE
5
151
100
AcDbEntity
8
0
100
AcDbPolyline
90
4
70
1
43
0.0
10
-475.59999999999997
20
-2.9749999999999992
10
-469.59999999999991
20
-2.9749999999999952
42
-0.99999999999999989
10
-469.59999999999991
20
-9.7249999999999996
10
-475.59999999999997
20
-9.7249999999999979
42
-0.99999999999999989
0
LWPOLYLINE
5
152
100
AcDbEntity
8
0
100
AcDbPolyline
90
4
70
1
43
0.0
10
-475.59999999999997
20
-34.725000000000001
10
-469.59999999999991
20
-34.725000000000001
42
-0.99999999999999989
10
-469.59999999999991
20
-41.475000000000001
10
-475.59999999999997
20
-41.475000000000001
42
-0.99999999999999989
0
CIRCLE
5
153
100
AcDbEntity
8
0
100
AcDbCircle
10
-326.26650139701883
20
-22.225000000000001
30
0
40
1.7499999999999716
210
0
220
0
230
1
0
CIRCLE
5
154
100
AcDbEntity
8
0
100
AcDbCircle
10
-231.4794931391053
20
-22.225000000000001
30
0
40
1.7499999999999716
210
0
220
0
230
1
0
CIRCLE
5
155
100
AcDbEntity
8
0
100
AcDbCircle
10
-156.33449313910529
20
-22.225000000000001
30
0
40
1.7499999999999716
210
0
220
0
230
1
0
CIRCLE
5
156
100
AcDbEntity
8
0
100
AcDbCircle
10
-251.12150139701873
20
-22.225000000000001
30
0
40
1.7499999999999716
210
0
220
0
230
1
0
CIRCLE
5
157
100
AcDbEntity
8
0
100
AcDbCircle
10
-381.76949313910535
20
-22.225000000000001
30
0
40
1.7499999999999716
210
0
220
0
230
1
0
CIRCLE
5
158
100
AcDbEntity
8
0
100
AcDbCircle
10
-306.62449313910531
20
-22.225000000000001
30
0
40
1.7499999999999716
210
0
220
0
230
1
0
CIRCLE
5
159
100
AcDbEntity
8
0
100
AcDbCircle
10
-100.83150139701874
20
-22.225000000000001
30
0
40
1.7499999999999716
210
0
220
0
230
1
0
CIRCLE
5
160
100
AcDbEntity
8
0
100
AcDbCircle
10
-175.97650139701875
20
-22.225000000000001
30
0
40
1.7499999999999716
210
0
220
0
230
1
0
CIRCLE
5
161
100
AcDbEntity
8
0
100
AcDbCircle
10
-401.41150139701881
20
-22.225000000000001
30
0
40
1.7499999999999716
210
0
220
0
230
1
0
CIRCLE
5
162
100
AcDbEntity
8
0
100
AcDbCircle
10
-456.91449313910533
20
-22.225000000000001
30
0
40
1.7499999999999716
210
0
220
0
230
1
0
CIRCLE
5
163
100
AcDbEntity
8
0
100
AcDbCircle
10
-25.685506860894733
20
-22.225000000000005
30
0
40
1.7499999999999716
210
0
220
0
230
1
0
CIRCLE
5
164
100
AcDbEntity
8
0
100
AcDbCircle
10
-81.188498602981269
20
-22.224999999999994
30
0
40
1.7499999999999716
210
0
220
0
230
1
0
ENDSEC
0
SECTION
2
OBJECTS
0
DICTIONARY
5
C
100
AcDbDictionary
3
ACAD_GROUP
350
D
3
ACAD_MLINESTYLE
350
17
0
DICTIONARY
5
D
100
AcDbDictionary
0
DICTIONARY
5
1A
330
C
100
AcDbDictionary
0
DICTIONARY
5
17
100
AcDbDictionary
0
ENDSEC
0
EOF
