0
SECTION
2
HEADER
9
$INSUNITS
70
4
9
$ACADVER
1
AC1014
9
$HANDSEED
5
FFFF
0
ENDSEC
0
SECTION
2
TABLES
0
TABLE
2
VPORT
5
8
100
AcDbSymbolTable
0
ENDTAB
0
TABLE
2
LTYPE
5
5
100
AcDbSymbolTable
0
LTYPE
5
14
100
AcDbSymbolTableRecord
100
AcDbLinetypeTableRecord
2
BYBLOCK
70
0
0
LTYPE
5
15
100
AcDbSymbolTableRecord
100
AcDbLinetypeTableRecord
2
BYLAYER
70
0
0
LTYPE
5
16
100
AcDbSymbolTableRecord
100
AcDbLinetypeTableRecord
2
DASHED
70
0
3
Dashed __ __ __ __ __ __ __ __ __ __ __ __ __ _
72
65
73
2
40
0.75
49
0.5
74
0
49
-0.25
74
0
0
ENDTAB
0
TABLE
2
LAYER
5
2
100
AcDbSymbolTable
70
3
0
LAYER
5
50
100
AcDbSymbolTableRecord
100
AcDbLayerTableRecord
2
1
70
0
62
7
6
DASHED
0
LAYER
5
51
100
AcDbSymbolTableRecord
100
AcDbLayerTableRecord
2
0
70
0
62
7
6
CONTINUOUS
0
ENDTAB
0
TABLE
2
STYLE
5
3
100
AcDbSymbolTable
70
1
0
STYLE
5
11
100
AcDbSymbolTableRecord
100
AcDbTextStyleTableRecord
2
STANDARD
70
0
0
ENDTAB
0
TABLE
2
VIEW
5
6
100
AcDbSymbolTable
70
0
0
ENDTAB
0
TABLE
2
UCS
5
7
100
AcDbSymbolTable
70
0
0
ENDTAB
0
TABLE
2
APPID
5
9
100
AcDbSymbolTable
70
2
0
APPID
5
12
100
AcDbSymbolTableRecord
100
AcDbRegAppTableRecord
2
ACAD
70
0
0
ENDTAB
0
TABLE
2
DIMSTYLE
5
A
100
AcDbSymbolTable
70
1
0
ENDTAB
0
TABLE
2
BLOCK_RECORD
5
1
100
AcDbSymbolTable
70
1
0
BLOCK_RECORD
5
1F
100
AcDbSymbolTableRecord
100
AcDbBlockTableRecord
2
*MODEL_SPACE
0
BLOCK_RECORD
5
1B
100
AcDbSymbolTableRecord
100
AcDbBlockTableRecord
2
*PAPER_SPACE
0
ENDTAB
0
ENDSEC
0
SECTION
2
BLOCKS
0
BLOCK
5
20
100
AcDbEntity
100
AcDbBlockBegin
2
*MODEL_SPACE
0
ENDBLK
5
21
100
AcDbEntity
100
AcDbBlockEnd
0
BLOCK
5
1C
100
AcDbEntity
100
AcDbBlockBegin
2
*PAPER_SPACE
0
ENDBLK
5
1D
100
AcDbEntity
100
AcDbBlockEnd
0
ENDSEC
0
SECTION
2
ENTITIES
0
LWPOLYLINE
5
100
100
AcDbEntity
8
0
100
AcDbPolyline
90
8
70
1
43
0.0
10
-398.41099999999994
20
-44.449999999999996
42
0.41421356237309503
10
-395.411
20
-41.449999999999996
10
-395.411
20
-3.0000000000000027
42
0.41421356237309503
10
-398.41099999999994
20
-2.2204460492503131e-15
10
-479.60000000000002
20
0
42
0.41421356237309503
10
-482.59999999999997
20
-3.0000000000000004
10
-482.59999999999997
20
-41.450000000000003
42
0.41421356237309503
10
-479.60000000000002
20
-44.450000000000003
0
SPLINE
5
101
100
AcDbEntity
8
0
100
AcDbSpline
70
0
71
3
72
18
73
14
74
0
42
0.000000001
43
0.0000000001
44
0.0000000001
40
-2.150965296901302
40
-2.150965296901302
40
-2.150965296901302
40
-2.150965296901302
40
-2.0190346538072332
40
-2.0190346538072332
40
-1.8877888669793736
40
-1.8877888669793736
40
-1.6551141215559184
40
-1.6551141215559184
40
-1.3529247271046292
40
-1.3529247271046292
40
-0.79376987484388017
40
-0.79376987484388017
40
-0.76409520542060705
40
-0.76409520542060705
40
-0.76409520542060705
40
-0.76409520542060705
10
-415.94198224042907
20
-38.540179269286739
30
2.7755575615628914e-15
10
-415.30690031435779
20
-38.540179269284643
30
2.7755575615628914e-15
10
-414.67101823077252
20
-38.47179251891896
30
2.3830937223578985e-12
10
-413.4328644311754
20
-38.203957269043144
30
2.3830937223578985e-12
10
-412.82874079205476
20
-38.004824388375525
30
2.4985569169189148e-12
10
-411.23652063520183
20
-37.275148061298218
30
2.4985569169189148e-12
10
-410.39768931547508
20
-36.646414446779247
30
2.2054580384178735e-12
10
-408.89702747358012
20
-35.084050405122134
30
2.2054580384178735e-12
10
-408.44521075395323
20
-34.205588491270845
30
4.4703130086531928e-12
10
-407.71512309699347
20
-32.384737208050851
30
4.4703130086531928e-12
10
-407.71894146870238
20
-31.806379123433729
30
-2.3869795029440866e-14
10
-407.58247939583526
20
-29.84836358937088
30
-2.3869795029440866e-14
10
-407.5756022493062
20
-29.749687382490549
30
-5.5511151231257827e-16
10
-407.56872510277731
20
-29.651011175610194
30
-5.5511151231257827e-16
0
LINE
5
102
100
AcDbEntity
8
0
100
AcDbLine
10
-415.94198224042907
20
-38.540179269286739
30
2.7755575615628914e-15
11
-442.38415320754001
21
-38.54017926928239
31
0
0
SPLINE
5
103
100
AcDbEntity
8
0
100
AcDbSpline
70
0
71
3
72
14
73
10
74
0
42
0.000000001
43
0.0000000001
44
0.0000000001
40
-1.9754802062857921
40
-1.9754802062857921
40
-1.9754802062857921
40
-1.9754802062857921
40
-1.2109567621509636
40
-1.2109567621509636
40
-0.72666452339112508
40
-0.72666452339112508
40
-0.34293366911490675
40
-0.34293366911490675
40
-0
40
-0
40
-0
40
-0
10
-450.7569292231716
20
-29.657902822013323
30
2.7755575615628914e-15
10
-450.60481194286234
20
-31.840560404177989
30
2.7755575615628914e-15
10
-450.62211407057282
20
-32.39673656759026
30
2.2054580384178735e-12
10
-449.77870876944684
20
-34.433321998653057
30
2.2054580384178735e-12
10
-449.26179194523786
20
-35.293353639765641
30
2.0988766280538584e-12
10
-447.81199786203354
20
-36.734332983161451
30
2.0988766280538584e-12
10
-446.91728986588566
20
-37.406062710259171
30
1.5926149288247871e-12
10
-444.67505227655374
20
-38.318637228542613
30
1.5926149288247871e-12
10
-443.52726543792409
20
-38.540179269282469
30
2.7755575615628914e-15
10
-442.38415320754109
20
-38.540179269286448
30
2.7755575615628914e-15
0
SPLINE
5
104
100
AcDbEntity
8
0
100
AcDbSpline
70
0
71
3
72
10
73
6
74
0
42
0.000000001
43
0.0000000001
44
0.0000000001
40
-1.4879369557591859
40
-1.4879369557591859
40
-1.4879369557591859
40
-1.4879369557591859
40
-0.74396847787959308
40
-0.74396847787959308
40
-0
40
-0
40
-0
40
-0
10
-450.75692922317148
20
-29.657902822014776
30
-9.9920072216264089e-15
10
-450.92934382741822
20
-27.184008715639393
30
-9.9920072216264089e-15
10
-451.01562914718056
20
-24.704864387822756
30
0
10
-451.01562800369425
20
-19.745074535292268
30
0
10
-450.92934154079137
20
-17.265930247262297
30
0
10
-450.75692579582523
20
-14.792036220388027
30
0
0
SPLINE
5
105
100
AcDbEntity
8
0
100
AcDbSpline
70
0
71
3
72
16
73
12
74
0
42
0.000000001
43
0.0000000001
44
0.0000000001
40
-1.6760013461632688
40
-1.6760013461632688
40
-1.6760013461632688
40
-1.6760013461632688
40
-1.4867609030856304
40
-1.4867609030856304
40
-1.2985501888887416
40
-1.2985501888887416
40
-1.0021554898280365
40
-1.0021554898280365
40
-0.64662423038570993
40
-0.64662423038570993
40
-0
40
-0
40
-0
40
-0
10
-442.38415320754098
20
-5.9098206459607683
30
2.7755575615628914e-15
10
-443.04085164254906
20
-5.9098206459629452
30
2.7755575615628914e-15
10
-443.69844188534017
20
-5.9829428214771321
30
-1.6936452240656763e-12
10
-444.97652372390581
20
-6.269143984218621
30
-1.6936452240656763e-12
10
-445.59904226156937
20
-6.4818722976760732
30
-1.8979262605967051e-12
10
-447.11658261444677
20
-7.2055644480415291
30
-1.8979262605967051e-12
10
-447.96018324633218
20
-7.8165822913857248
30
-1.3739009929736312e-12
10
-449.49645260724469
20
-9.4626701752704321
30
-1.3739009929736312e-12
10
-449.93272694650415
20
-10.349335173005747
30
-3.5410563370419368e-12
10
-450.6178517405769
20
-12.132265799877544
30
-3.5410563370419368e-12
10
-450.60706971763119
20
-12.641837833300061
30
2.7755575615628914e-15
10
-450.7569257958254
20
-14.792036220391239
30
2.7755575615628914e-15
0
LINE
5
106
100
AcDbEntity
8
0
100
AcDbLine
10
-442.38415320754098
20
-5.9098206459607683
30
2.7755575615628914e-15
11
-415.94198224043004
21
-5.9098206459581544
31
5.5511151231257827e-16
0
SPLINE
5
107
100
AcDbEntity
8
0
100
AcDbSpline
70
0
71
3
72
16
73
12
74
0
42
0.000000001
43
0.0000000001
44
0.0000000001
40
-2.2245984818753484
40
-2.2245984818753484
40
-2.2245984818753484
40
-2.2245984818753484
40
-1.8756700445797512
40
-1.8756700445797512
40
-1.2109567620374246
40
-1.2109567620374246
40
-0.72666452335425014
40
-0.72666452335425014
40
-0.34293366909113437
40
-0.34293366909113437
40
-0
40
-0
40
-0
40
-0
10
-407.56872167864026
20
-14.799049612647439
30
-6.6613381477509392e-15
10
-407.5974978796657
20
-14.386153765272599
30
-6.6613381477509392e-15
10
-407.62627408069113
20
-13.973257917897769
30
5.9269256169613982e-12
10
-407.70986932481605
20
-12.773790026742745
30
5.9269256169613982e-12
10
-407.7714295790019
20
-11.890491592241137
30
5.7137627962333681e-12
10
-408.54742667864315
20
-10.016677916363863
30
5.7137627962333681e-12
10
-409.06434350289555
20
-9.1566462752770335
30
6.237788063856442e-12
10
-410.51413758615377
20
-7.7156669319040976
30
6.237788063856442e-12
10
-411.4088455823366
20
-7.0439372048460589
30
4.5502490664262041e-12
10
-413.65108317157967
20
-6.1313626866680675
30
4.5502490664262041e-12
10
-414.79887001012901
20
-5.9098206459580993
30
2.7755575615628914e-15
10
-415.94198224043276
20
-5.9098206459686162
30
2.7755575615628914e-15
0
SPLINE
5
108
100
AcDbEntity
8
0
100
AcDbSpline
70
0
71
3
72
10
73
6
74
0
42
0.000000001
43
0.0000000001
44
0.0000000001
40
-1.4865451888711487
40
-1.4865451888711487
40
-1.4865451888711487
40
-1.4865451888711487
40
-0.74327259443557403
40
-0.74327259443557403
40
-0
40
-0
40
-0
40
-0
10
-407.56872167864015
20
-14.799049612646662
30
-1.7763568394002505e-14
10
-407.39646834529583
20
-17.270629720509842
30
-1.7763568394002505e-14
10
-407.31026373395935
20
-19.74745513893129
30
-2.55351295663786e-14
10
-407.31026487637507
20
-24.702605768501655
30
-2.55351295663786e-14
10
-407.3964706297815
20
-27.179431147173695
30
2.7755575615628914e-15
10
-407.56872510277725
20
-29.651011175610194
30
2.7755575615628914e-15
0
LWPOLYLINE
5
109
100
AcDbEntity
8
0
100
AcDbPolyline
90
4
70
1
43
0.0
10
-475.59999999999997
20
-34.725000000000001
10
-469.59999999999991
20
-34.725000000000001
42
-0.99999999999999989
10
-469.59999999999991
20
-41.475000000000001
10
-475.59999999999997
20
-41.475000000000001
42
-0.99999999999999989
0
LWPOLYLINE
5
110
100
AcDbEntity
8
0
100
AcDbPolyline
90
4
70
1
43
0.0
10
-475.59999999999997
20
-2.9749999999999992
10
-469.59999999999991
20
-2.9749999999999952
42
-0.99999999999999989
10
-469.59999999999991
20
-9.7249999999999996
10
-475.59999999999997
20
-9.7249999999999979
42
-0.99999999999999989
0
CIRCLE
5
111
100
AcDbEntity
8
0
100
AcDbCircle
10
-456.91449313910533
20
-22.225000000000001
30
0
40
1.7499999999999716
210
0
220
0
230
1
0
CIRCLE
5
112
100
AcDbEntity
8
0
100
AcDbCircle
10
-401.41150139701881
20
-22.225000000000001
30
0
40
1.7499999999999716
210
0
220
0
230
1
0
ENDSEC
0
SECTION
2
OBJECTS
0
DICTIONARY
5
C
100
AcDbDictionary
3
ACAD_GROUP
350
D
3
ACAD_MLINESTYLE
350
17
0
DICTIONARY
5
D
100
AcDbDictionary
0
DICTIONARY
5
1A
330
C
100
AcDbDictionary
0
DICTIONARY
5
17
100
AcDbDictionary
0
ENDSEC
0
EOF
