0
SECTION
2
HEADER
9
$INSUNITS
70
4
9
$ACADVER
1
AC1014
9
$HANDSEED
5
FFFF
0
ENDSEC
0
SECTION
2
TABLES
0
TABLE
2
VPORT
5
8
100
AcDbSymbolTable
0
ENDTAB
0
TABLE
2
LTYPE
5
5
100
AcDbSymbolTable
0
LTYPE
5
14
100
AcDbSymbolTableRecord
100
AcDbLinetypeTableRecord
2
BYBLOCK
70
0
0
LTYPE
5
15
100
AcDbSymbolTableRecord
100
AcDbLinetypeTableRecord
2
BYLAYER
70
0
0
LTYPE
5
16
100
AcDbSymbolTableRecord
100
AcDbLinetypeTableRecord
2
DASHED
70
0
3
Dashed __ __ __ __ __ __ __ __ __ __ __ __ __ _
72
65
73
2
40
0.75
49
0.5
74
0
49
-0.25
74
0
0
ENDTAB
0
TABLE
2
LAYER
5
2
100
AcDbSymbolTable
70
3
0
LAYER
5
50
100
AcDbSymbolTableRecord
100
AcDbLayerTableRecord
2
1
70
0
62
7
6
DASHED
0
LAYER
5
51
100
AcDbSymbolTableRecord
100
AcDbLayerTableRecord
2
0
70
0
62
7
6
CONTINUOUS
0
ENDTAB
0
TABLE
2
STYLE
5
3
100
AcDbSymbolTable
70
1
0
STYLE
5
11
100
AcDbSymbolTableRecord
100
AcDbTextStyleTableRecord
2
STANDARD
70
0
0
ENDTAB
0
TABLE
2
VIEW
5
6
100
AcDbSymbolTable
70
0
0
ENDTAB
0
TABLE
2
UCS
5
7
100
AcDbSymbolTable
70
0
0
ENDTAB
0
TABLE
2
APPID
5
9
100
AcDbSymbolTable
70
2
0
APPID
5
12
100
AcDbSymbolTableRecord
100
AcDbRegAppTableRecord
2
ACAD
70
0
0
ENDTAB
0
TABLE
2
DIMSTYLE
5
A
100
AcDbSymbolTable
70
1
0
ENDTAB
0
TABLE
2
BLOCK_RECORD
5
1
100
AcDbSymbolTable
70
1
0
BLOCK_RECORD
5
1F
100
AcDbSymbolTableRecord
100
AcDbBlockTableRecord
2
*MODEL_SPACE
0
BLOCK_RECORD
5
1B
100
AcDbSymbolTableRecord
100
AcDbBlockTableRecord
2
*PAPER_SPACE
0
ENDTAB
0
ENDSEC
0
SECTION
2
BLOCKS
0
BLOCK
5
20
100
AcDbEntity
100
AcDbBlockBegin
2
*MODEL_SPACE
0
ENDBLK
5
21
100
AcDbEntity
100
AcDbBlockEnd
0
BLOCK
5
1C
100
AcDbEntity
100
AcDbBlockBegin
2
*PAPER_SPACE
0
ENDBLK
5
1D
100
AcDbEntity
100
AcDbBlockEnd
0
ENDSEC
0
SECTION
2
ENTITIES
0
SPLINE
5
100
100
AcDbEntity
8
0
100
AcDbSpline
70
0
71
3
72
10
73
6
74
0
42
0.000000001
43
0.0000000001
44
0.0000000001
40
-1.4865451888712209
40
-1.4865451888712209
40
-1.4865451888712209
40
-1.4865451888712209
40
-0.74327259443559057
40
-0.74327259443559057
40
-0
40
-0
40
-0
40
-0
10
-407.56872510277736
20
-29.651011175610307
30
0
10
-407.39647062978167
20
-27.179431147173617
30
0
10
-407.31026487637507
20
-24.70260576850189
30
6.1117777505614868e-13
10
-407.31026373395935
20
-19.747455138931286
30
6.1117777505614868e-13
10
-407.39646834529594
20
-17.270629720509717
30
0
10
-407.56872167864037
20
-14.799049612646487
30
0
0
SPLINE
5
101
100
AcDbEntity
8
0
100
AcDbSpline
70
0
71
3
72
16
73
12
74
0
42
0.000000001
43
0.0000000001
44
0.0000000001
40
-1.6689594247840336
40
-1.6689594247840336
40
-1.6689594247840336
40
-1.6689594247840336
40
-1.4811597547325548
40
-1.4811597547325548
40
-1.2943866769466028
40
-1.2943866769466028
40
-1.0010301285099183
40
-1.0010301285099183
40
-0.6482154440596879
40
-0.6482154440596879
40
-0
40
-0
40
-0
40
-0
10
-415.94198224042907
20
-38.540179269286718
30
0
10
-415.28404586154119
20
-38.54017926928455
30
0
10
-414.6254755542866
20
-38.466965051103557
30
1.9412249585570862e-12
10
-413.34511308128708
20
-38.179751944007556
30
1.9412249585570862e-12
10
-412.72188633468591
20
-37.966243707900347
30
2.053357484044227e-12
10
-411.20453472690497
20
-37.241097608108234
30
2.053357484044227e-12
10
-410.36186722060216
20
-36.630298620357024
30
1.7558177134446851e-12
10
-408.82483326873199
20
-34.980911459881881
30
1.7558177134446851e-12
10
-408.38979470040113
20
-34.092069900011253
30
4.0989434069160779e-12
10
-407.70825735982203
20
-32.317339446928088
30
4.0989434069160779e-12
10
-407.7189499469867
20
-31.806500773445588
30
0
10
-407.56872510277736
20
-29.651011175610165
30
0
0
LINE
5
102
100
AcDbEntity
8
0
100
AcDbLine
10
-415.94198224042907
20
-38.540179269286718
30
0
11
-442.38415320754109
21
-38.540179269286426
31
0
0
SPLINE
5
103
100
AcDbEntity
8
0
100
AcDbSpline
70
0
71
3
72
14
73
10
74
0
42
0.000000001
43
0.0000000001
44
0.0000000001
40
-1.8394274188260678
40
-1.8394274188260678
40
-1.8394274188260678
40
-1.8394274188260678
40
-1.1617660406758126
40
-1.1617660406758126
40
-0.71769847701160239
40
-0.71769847701160239
40
-0.34394416018432361
40
-0.34394416018432361
40
-0
40
-0
40
-0
40
-0
10
-450.7569292231716
20
-29.657902822013298
30
0
10
-450.60460229069258
20
-31.843568602175971
30
0
10
-450.62169844185792
20
-32.394229147283667
30
2.2287727219350018e-12
10
-449.77315537066204
20
-34.449566494004692
30
2.2287727219350018e-12
10
-449.24994382999301
20
-35.303571528584044
30
2.0755619445367302e-12
10
-447.79261069450661
20
-36.755224278195385
30
2.0755619445367302e-12
10
-446.89400911462849
20
-37.414085093560402
30
1.57818202950466e-12
10
-444.68035195649799
20
-38.317889368169702
30
1.57818202950466e-12
10
-443.53063374148883
20
-38.540179269282433
30
0
10
-442.38415320754109
20
-38.540179269286426
30
0
0
SPLINE
5
104
100
AcDbEntity
8
0
100
AcDbSpline
70
0
71
3
72
10
73
6
74
0
42
0.000000001
43
0.0000000001
44
0.0000000001
40
-1.4879275719776937
40
-1.4879275719776937
40
-1.4879275719776937
40
-1.4879275719776937
40
-0.74396378598967794
40
-0.74396378598967794
40
-0
40
-0
40
-0
40
-0
10
-450.75692579582523
20
-14.792036220387875
30
0
10
-450.92934045344015
20
-17.265914645487385
30
0
10
-451.01562800369771
20
-19.745090176925711
30
-5.5511151231257827e-15
10
-451.01562914717709
20
-24.704848746195243
30
-5.5511151231257827e-15
10
-450.92934274007314
20
-27.184024317428381
30
0
10
-450.75692922317137
20
-29.657902822015316
30
0
0
SPLINE
5
105
100
AcDbEntity
8
0
100
AcDbSpline
70
0
71
3
72
16
73
12
74
0
42
0.000000001
43
0.0000000001
44
0.0000000001
40
-1.6651804886733699
40
-1.6651804886733699
40
-1.6651804886733699
40
-1.6651804886733699
40
-1.47798118771937
40
-1.47798118771937
40
-1.2918041421443962
40
-1.2918041421443962
40
-0.99911507294167412
40
-0.99911507294167412
40
-0.6471249597238401
40
-0.6471249597238401
40
-0
40
-0
40
-0
40
-0
10
-442.38415320754098
20
-5.909820645960747
30
0
10
-443.04160107359871
20
-5.9098206459629266
30
0
10
-443.69968131827829
20
-5.9829261640409435
30
-1.7474910407599964e-12
10
-444.97914413062279
20
-6.2697166779704547
30
-1.7474910407599964e-12
10
-445.60195864454528
20
-6.482912268503024
30
-1.9528823003156504e-12
10
-447.1192944370448
20
-7.207407464198889
30
-1.9528823003156504e-12
10
-447.96220996155705
20
-7.8179831415031886
30
-1.4155343563970746e-12
10
-449.4998949713796
20
-9.4669897698534715
30
-1.4155343563970746e-12
10
-449.93525286933988
20
-10.355710520296936
30
-3.5343949988941858e-12
10
-450.61772978642057
20
-12.131149763239645
30
-3.5343949988941858e-12
10
-450.60695367290032
20
-12.640172774422521
30
-5.5511151231257827e-16
10
-450.7569257958254
20
-14.792036220391211
30
-5.5511151231257827e-16
0
LINE
5
106
100
AcDbEntity
8
0
100
AcDbLine
10
-442.38415320754098
20
-5.909820645960747
30
0
11
-415.94198224043276
21
-5.9098206459685958
31
0
0
SPLINE
5
107
100
AcDbEntity
8
0
100
AcDbSpline
70
0
71
3
72
14
73
10
74
0
42
0.000000001
43
0.0000000001
44
0.0000000001
40
-1.8397434411567177
40
-1.8397434411567177
40
-1.8397434411567177
40
-1.8397434411567177
40
-1.1617660405579093
40
-1.1617660405579093
40
-0.71769847696999212
40
-0.71769847696999212
40
-0.34394416016052037
40
-0.34394416016052037
40
-0
40
-0
40
-0
40
-0
10
-407.56872167864026
20
-14.799049612646655
30
0
10
-407.72147464138084
20
-12.607270929491586
30
0
10
-407.70419794769799
20
-12.056349814123653
30
5.8097970878634442e-12
10
-408.55298007742084
20
-10.000433421030007
30
5.8097970878634442e-12
10
-409.07619161812841
20
-9.1464283864709159
30
6.2927441035753873e-12
10
-410.53352475369275
20
-7.6947756368590001
30
6.2927441035753873e-12
10
-411.43212633360969
20
-7.0359148215389533
30
4.556910404573955e-12
10
-413.64578349163588
20
-6.1321105470408739
30
4.556910404573955e-12
10
-414.79550170656438
20
-5.9098206459580469
30
0
10
-415.94198224043276
20
-5.9098206459685958
30
0
0
LWPOLYLINE
5
108
100
AcDbEntity
8
0
100
AcDbPolyline
90
4
70
1
43
0.0
10
-13.000000000000004
20
-34.725000000000001
42
0.99999999999999989
10
-13.000000000000004
20
-41.475000000000009
10
-6.9999999999999964
20
-41.475000000000009
42
0.99999999999999989
10
-6.9999999999999964
20
-34.725000000000001
0
LWPOLYLINE
5
109
100
AcDbEntity
8
0
100
AcDbPolyline
90
4
70
1
43
0.0
10
-13.000000000000004
20
-2.9750000000000023
42
0.99999999999999989
10
-13.000000000000004
20
-9.7250000000000032
10
-6.9999999999999964
20
-9.7250000000000032
42
0.99999999999999989
10
-6.9999999999999964
20
-2.9750000000000028
0
LWPOLYLINE
5
110
100
AcDbEntity
8
0
100
AcDbPolyline
90
8
70
1
43
0.0
10
-3.0000000000000036
20
0
10
-479.60000000000002
20
0
42
0.41421356237309503
10
-482.59999999999997
20
-3.0000000000000004
10
-482.59999999999997
20
-41.450000000000003
42
0.41421356237309503
10
-479.60000000000002
20
-44.450000000000003
10
-3.0000000000000426
20
-44.450000000000003
42
0.41421356237309781
10
-1.3322676295501878e-14
20
-41.450000000000003
10
0
20
-3.0000000000000027
42
0.41421356237309537
0
LWPOLYLINE
5
111
100
AcDbEntity
8
0
100
AcDbPolyline
90
4
70
1
43
0.0
10
-475.59999999999997
20
-2.9749999999999992
10
-469.59999999999991
20
-2.9749999999999952
42
-0.99999999999999989
10
-469.59999999999991
20
-9.7249999999999996
10
-475.59999999999997
20
-9.7249999999999979
42
-0.99999999999999989
0
LWPOLYLINE
5
112
100
AcDbEntity
8
0
100
AcDbPolyline
90
4
70
1
43
0.0
10
-475.59999999999997
20
-34.725000000000001
10
-469.59999999999991
20
-34.725000000000001
42
-0.99999999999999989
10
-469.59999999999991
20
-41.475000000000001
10
-475.59999999999997
20
-41.475000000000001
42
-0.99999999999999989
0
CIRCLE
5
113
100
AcDbEntity
8
0
100
AcDbCircle
10
-401.41150139701881
20
-22.225000000000001
30
0
40
1.7499999999999716
210
0
220
0
230
1
0
CIRCLE
5
114
100
AcDbEntity
8
0
100
AcDbCircle
10
-456.91449313910533
20
-22.225000000000001
30
0
40
1.7499999999999716
210
0
220
0
230
1
0
ENDSEC
0
SECTION
2
OBJECTS
0
DICTIONARY
5
C
100
AcDbDictionary
3
ACAD_GROUP
350
D
3
ACAD_MLINESTYLE
350
17
0
DICTIONARY
5
D
100
AcDbDictionary
0
DICTIONARY
5
1A
330
C
100
AcDbDictionary
0
DICTIONARY
5
17
100
AcDbDictionary
0
ENDSEC
0
EOF
